<svg width="524" height="292" viewBox="0 0 524 292" fill="none" xmlns="http://www.w3.org/2000/svg">
<rect opacity="0.1" y="109" width="524" height="182" rx="24" fill="#1AD3D3"/>
<path d="M90.9627 223V188.98H10.7727V159.01L97.9827 32.6499H132.003V156.04H157.923V188.98H132.003V223H90.9627ZM90.9627 156.04V93.9399L48.8427 156.04H90.9627Z" fill="#302B55"/>
<path d="M80.9627 210V175.98H0.772705V146.01L87.9827 19.6499H122.003V143.04H147.923V175.98H122.003V210H80.9627ZM80.9627 143.04V80.9399L38.8427 143.04H80.9627Z" fill="#966ADC"/>
<path d="M455.963 223V188.98H375.773V159.01L462.983 32.6497H497.003V156.04H522.923V188.98H497.003V223H455.963ZM455.963 156.04V93.9397L413.843 156.04H455.963Z" fill="#302B55"/>
<path d="M445.963 210V175.98H365.773V146.01L452.983 19.6497H487.003V143.04H512.923V175.98H487.003V210H445.963ZM445.963 143.04V80.9397L403.843 143.04H445.963Z" fill="#966ADC"/>
<path d="M260.053 225.97C237.013 225.97 219.373 217.42 207.133 200.32C195.073 183.22 189.043 158.83 189.043 127.15C189.043 95.4697 195.073 71.3497 207.133 54.7897C219.373 38.0497 237.013 29.6797 260.053 29.6797C283.093 29.6797 300.643 38.0497 312.703 54.7897C324.943 71.3497 331.063 95.4697 331.063 127.15C331.063 158.83 324.943 183.22 312.703 200.32C300.643 217.42 283.093 225.97 260.053 225.97ZM260.053 191.95C270.493 191.95 278.233 186.82 283.273 176.56C288.313 166.12 290.833 149.65 290.833 127.15C290.833 104.65 288.313 88.4497 283.273 78.5497C278.233 68.6497 270.493 63.6997 260.053 63.6997C249.613 63.6997 241.873 68.6497 236.833 78.5497C231.793 88.4497 229.273 104.65 229.273 127.15C229.273 149.65 231.793 166.12 236.833 176.56C241.873 186.82 249.613 191.95 260.053 191.95Z" fill="#302B55"/>
<path d="M248.053 212.97C225.013 212.97 207.373 204.42 195.133 187.32C183.073 170.22 177.043 145.83 177.043 114.15C177.043 82.4697 183.073 58.3497 195.133 41.7897C207.373 25.0497 225.013 16.6797 248.053 16.6797C271.093 16.6797 288.643 25.0497 300.703 41.7897C312.943 58.3497 319.063 82.4697 319.063 114.15C319.063 145.83 312.943 170.22 300.703 187.32C288.643 204.42 271.093 212.97 248.053 212.97ZM248.053 178.95C258.493 178.95 266.233 173.82 271.273 163.56C276.313 153.12 278.833 136.65 278.833 114.15C278.833 91.6497 276.313 75.4497 271.273 65.5497C266.233 55.6497 258.493 50.6997 248.053 50.6997C237.613 50.6997 229.873 55.6497 224.833 65.5497C219.793 75.4497 217.273 91.6497 217.273 114.15C217.273 136.65 219.793 153.12 224.833 163.56C229.873 173.82 237.613 178.95 248.053 178.95Z" fill="#966ADC"/>
<mask id="mask0_795_14828" style="mask-type:luminance" maskUnits="userSpaceOnUse" x="0" y="109" width="524" height="182">
<rect y="109.064" width="523.99" height="181.816" rx="24" fill="white"/>
</mask>
<g mask="url(#mask0_795_14828)">
<path fill-rule="evenodd" clip-rule="evenodd" d="M303.553 249.581C303.058 246.267 293.149 235.305 293.149 235.305C293.149 235.305 288.195 215.421 286.709 209.557C286.338 208.092 285.541 206.427 284.555 204.755C281.097 198.889 276.027 194.139 270.091 190.802L256.379 183.091L253.098 175.792L220.152 158.865L211.219 174.623C211.219 174.623 189.525 181.518 186.655 186.443C183.783 191.368 188.079 257.36 188.079 257.36C188.079 257.36 178.998 295.445 177.084 303.325C175.17 311.205 177.701 320.607 177.701 320.607L193.857 300.329C198.877 294.028 209.902 291.133 217.819 291.245L285.474 291.544L282.783 272.592L337.489 283.231C337.489 283.231 346.902 264.877 347.645 264.507C348.388 264.138 303.553 249.581 303.553 249.581Z" fill="#684A98"/>
<path fill-rule="evenodd" clip-rule="evenodd" d="M313.98 246.513L290.407 287.74L232.326 289.004L232.182 291.634L288.42 291.216L290.204 291.155L349.59 291.271L361.591 270.575L376.921 248.604C377.925 247.164 376.89 245.189 375.134 245.195L315.854 245.421C315.08 245.425 314.365 245.84 313.98 246.513Z" fill="#1AD3D3"/>
<path fill-rule="evenodd" clip-rule="evenodd" d="M207.559 291.244C207.443 291.244 207.326 291.244 207.21 291.244C202.583 291.232 197.914 291.102 193.421 289.995C189.071 288.925 185.259 286.131 182.282 282.77C196.266 285.922 211.4 288.081 211.4 288.081L212.606 282.994C217.792 284.068 222.936 285.349 228.022 286.833C228.097 288.109 227.032 289.237 225.815 289.629C225.312 289.792 224.793 289.855 224.267 289.855C223.518 289.855 222.759 289.726 222.025 289.569C220.892 289.327 219.755 289.017 218.602 289.017C218.482 289.017 218.362 289.021 218.241 289.027C216.335 289.141 214.623 290.184 212.786 290.712C211.098 291.2 209.319 291.244 207.559 291.244Z" fill="#4D3277"/>
<path fill-rule="evenodd" clip-rule="evenodd" d="M361.591 270.575C361.591 270.575 364.642 273.372 364.16 275.748C363.678 278.124 363.839 279.891 361.591 280.052C361.591 280.052 361.751 283.104 358.538 283.586C358.538 283.586 359.227 287.311 354.891 287.954C354.891 287.954 353.559 291.937 350.829 290.975C348.098 290.01 346.332 288.885 346.332 288.885L345.529 287.441C345.529 287.441 341.505 285.928 342.497 283.656C343.099 282.278 345.179 281.919 345.179 281.919C345.179 281.919 344.314 279.896 345.436 278.386C346.401 277.091 349.542 278.162 349.542 278.162C349.542 278.162 349.356 276.489 350.537 275.088C351.606 273.82 356.606 277.266 356.606 277.266L359.333 274.008L361.591 270.575Z" fill="#FFD3B5"/>
</g>
<path fill-rule="evenodd" clip-rule="evenodd" d="M218.743 180.819C218.269 180.336 222.568 194.851 227.962 209.634C230.869 217.6 232.326 226.048 232.326 234.556V288.082L264.766 285.879L259.917 250.619C259.917 250.619 255.962 227.874 254.855 219.224C253.841 211.303 250.357 189.824 250.357 189.824C250.357 189.824 232.326 194.652 218.743 180.819Z" fill="#FFFFFE"/>
<path fill-rule="evenodd" clip-rule="evenodd" d="M290.728 262.88C290.689 262.877 290.679 262.586 290.726 262.064C290.771 261.541 290.895 260.789 291.152 259.882C291.652 258.08 292.807 255.644 294.859 253.589C296.911 251.532 299.343 250.372 301.147 249.868C302.052 249.609 302.805 249.482 303.326 249.436C303.849 249.389 304.139 249.4 304.143 249.437C304.156 249.538 303.007 249.661 301.273 250.264C299.549 250.855 297.245 252.03 295.276 254.004C293.306 255.977 292.136 258.283 291.548 260.01C290.948 261.743 290.827 262.894 290.728 262.88Z" fill="#4B376E"/>
<path fill-rule="evenodd" clip-rule="evenodd" d="M292.399 250.041C292.329 249.911 294.46 248.833 297.352 248.606C300.242 248.356 302.522 249.074 302.473 249.211C302.439 249.387 300.182 248.95 297.401 249.192C294.617 249.408 292.463 250.207 292.399 250.041Z" fill="#4B376E"/>
<path fill-rule="evenodd" clip-rule="evenodd" d="M277.411 283.342L269.452 274.888L253.078 270.745C253.078 270.745 238.075 275.239 237.716 275.226C237.357 275.213 224.658 271.756 224.658 271.756L220.22 288.035L243.091 289.601L269.204 288.556C269.204 288.556 270.566 287.288 269.759 286.42C268.951 285.554 274.125 287.886 274.733 287.915C275.332 287.943 276.524 288.41 277.331 287.434C277.881 286.769 278.627 284.633 277.411 283.342Z" fill="#FFD3B5"/>
<path fill-rule="evenodd" clip-rule="evenodd" d="M269.758 286.418C269.728 286.5 268.744 286.182 267.157 285.679C265.57 285.175 263.375 284.502 260.918 283.873C258.46 283.245 256.21 282.779 254.577 282.451C252.946 282.125 251.933 281.92 251.944 281.836C251.954 281.759 252.989 281.818 254.646 282.041C256.305 282.265 258.586 282.67 261.064 283.303C263.541 283.937 265.736 284.679 267.295 285.287C268.855 285.894 269.788 286.347 269.758 286.418Z" fill="#EBA87B"/>
<path fill-rule="evenodd" clip-rule="evenodd" d="M277.411 283.339C277.377 283.421 276.009 282.911 273.778 282.168C271.548 281.416 268.434 280.495 264.97 279.528C261.51 278.5 258.429 277.472 256.093 277.336C253.766 277.138 252.346 277.598 252.323 277.483C252.314 277.451 252.655 277.309 253.304 277.153C253.953 276.996 254.922 276.878 256.118 276.92C258.531 276.954 261.707 277.946 265.131 278.962C268.596 279.93 271.713 280.919 273.918 281.776C275.022 282.198 275.902 282.574 276.503 282.85C277.103 283.127 277.425 283.303 277.411 283.339Z" fill="#EBA87B"/>
<path fill-rule="evenodd" clip-rule="evenodd" d="M186.654 186.442C186.654 186.442 174.85 194.65 171.979 206.47C169.108 218.289 156.665 266.552 159.218 273.775C161.77 280.998 211.399 288.081 211.399 288.081L217.279 263.268L192.076 256.374C192.076 256.374 192.395 233.391 192.715 223.87C193.033 214.349 186.654 186.442 186.654 186.442Z" fill="#684A98"/>
<path fill-rule="evenodd" clip-rule="evenodd" d="M216.949 266.971L225.07 268.97L220.184 287.698L212.205 286.419L216.949 266.971Z" fill="#FFFFFE"/>
<path fill-rule="evenodd" clip-rule="evenodd" d="M159.032 271.221C159.073 271.221 159.008 271.634 159.152 272.391C159.313 273.134 159.795 274.215 160.882 275.207C163.039 277.215 167.158 278.888 172.382 279.828L172.399 279.83L172.418 279.837C174.807 280.622 177.524 281.244 180.433 281.903C183.346 282.554 186.47 283.221 189.773 283.893C196.376 285.242 203.683 286.663 211.423 288.112L211.086 288.33C211.647 286.029 212.24 283.594 212.841 281.128C214.233 275.434 215.582 269.919 216.86 264.689L217.059 265.03C208.724 262.651 201.118 260.48 194.661 258.636L194.647 258.633L194.635 258.627C191.215 257.227 187.814 256.716 184.865 256.916C181.903 257.052 179.42 257.844 177.492 258.648C175.561 259.475 174.179 260.374 173.256 260.994C172.829 261.306 172.489 261.553 172.23 261.742C171.997 261.91 171.874 261.992 171.867 261.983C171.859 261.974 171.968 261.874 172.187 261.688C172.409 261.507 172.73 261.222 173.177 260.884C174.079 260.226 175.449 259.284 177.388 258.411C179.323 257.562 181.831 256.722 184.843 256.549C187.84 256.312 191.313 256.8 194.811 258.203L194.785 258.194C201.252 260.008 208.867 262.144 217.214 264.485L217.477 264.558L217.412 264.823C216.14 270.054 214.798 275.572 213.412 281.267C212.811 283.734 212.215 286.167 211.654 288.468L211.588 288.737L211.317 288.686C203.572 287.227 196.269 285.787 189.667 284.404C186.365 283.718 183.241 283.031 180.328 282.359C177.415 281.678 174.711 281.037 172.283 280.212L172.319 280.222C167.038 279.217 162.908 277.478 160.732 275.364C159.638 274.322 159.168 273.181 159.042 272.411C158.93 271.628 159.032 271.221 159.032 271.221Z" fill="#4B376E"/>
<path fill-rule="evenodd" clip-rule="evenodd" d="M193.438 258.019C193.368 258.093 192.528 257.322 191.014 256.308C189.504 255.291 187.268 254.097 184.605 253.316C181.937 252.545 179.41 252.352 177.591 252.398C175.769 252.442 174.646 252.64 174.628 252.539C174.612 252.482 175.715 252.135 177.571 251.983C179.42 251.828 182.029 251.959 184.769 252.752C187.506 253.553 189.777 254.843 191.253 255.969C192.737 257.093 193.481 257.977 193.438 258.019Z" fill="#4B376E"/>
<path fill-rule="evenodd" clip-rule="evenodd" d="M215.868 209.352C214.282 205.635 213.34 201.629 213.1 197.577C214.051 200.334 215.116 202.888 216.161 205.134L216.506 205.877L216.664 205.073C217.01 203.317 218.378 202.014 219.763 201.565C220.19 201.422 220.614 201.36 221.021 201.36C221.249 201.36 221.472 201.379 221.689 201.415C222.851 201.775 223.902 202.561 224.672 203.543C225.762 204.931 226.351 206.669 226.708 208.414C225.274 206.924 223.352 205.658 221.374 205.658C221.028 205.658 220.679 205.696 220.332 205.78C218.461 206.227 217.097 207.834 215.868 209.352ZM216.352 204.252C215.755 202.9 215.155 201.45 214.573 199.923L216.382 204.171C216.372 204.198 216.362 204.225 216.352 204.252ZM216.556 203.78C216.896 202.794 217.691 202.006 218.642 201.571C217.799 202.052 217.037 202.809 216.556 203.78Z" fill="#4B376E"/>
<path fill-rule="evenodd" clip-rule="evenodd" d="M216.508 205.878L216.162 205.135C215.117 202.889 214.052 200.335 213.102 197.578C213.081 197.251 213.067 196.926 213.056 196.6L213.191 196.674L214.574 199.923C215.156 201.451 215.757 202.901 216.353 204.253C216.363 204.226 216.373 204.199 216.383 204.171L216.428 204.275C216.458 204.106 216.502 203.941 216.557 203.781C217.038 202.81 217.801 202.053 218.643 201.572C219.133 201.348 219.665 201.218 220.197 201.204C220.236 201.203 220.276 201.203 220.315 201.203C220.783 201.203 221.245 201.277 221.69 201.416C221.473 201.38 221.251 201.361 221.022 201.361C220.615 201.361 220.191 201.423 219.764 201.566C218.379 202.015 217.011 203.318 216.666 205.074L216.508 205.878Z" fill="#5D4387"/>
<path fill-rule="evenodd" clip-rule="evenodd" d="M259.529 128.417C258.192 115.879 247.447 106.474 234.843 106.798L233.59 106.83C220.102 107.967 213.532 120.056 215.042 133.507L218.742 180.819L220.309 182.742C227.56 191.643 239.893 194.548 250.356 189.824L249.319 174.603C249.319 174.603 262.254 172.251 262.08 159.263C261.997 152.989 260.772 140.083 259.529 128.417Z" fill="#FFD3B5"/>
<path fill-rule="evenodd" clip-rule="evenodd" d="M249.421 174.58C249.421 174.58 241.142 175.293 232.281 170.039C232.281 170.039 236.522 179.28 249.447 177.777L249.421 174.58Z" fill="#EBA87B"/>
<path fill-rule="evenodd" clip-rule="evenodd" d="M216.555 143.068C216.332 142.977 207.566 140.658 208.078 149.527C208.589 158.396 217.389 156.054 217.389 155.797C217.39 155.543 216.555 143.068 216.555 143.068Z" fill="#FFD3B5"/>
<path fill-rule="evenodd" clip-rule="evenodd" d="M263.316 116.931C263.069 115.754 261.908 114.758 260.715 114.935C261.352 114.708 262.005 114.472 262.506 114.022C263.011 113.573 263.333 112.853 263.121 112.212C262.788 111.208 261.504 111.002 260.485 110.713C259.158 110.336 257.955 109.532 257.098 108.452C255.864 106.892 255.389 104.864 254.321 103.186C252.942 101.012 250.543 99.5167 247.984 99.2344C245.425 98.9532 242.759 99.8905 240.938 101.71C238.954 99.6726 235.963 98.6686 233.151 99.0978C230.34 99.5258 227.782 101.376 226.496 103.912C223.05 102.478 218.845 103.069 215.929 105.399C213.014 107.729 211.509 111.701 212.147 115.378L220.235 120.334C220.366 117.834 223.156 115.85 225.561 116.544C228.002 117.25 229.563 120.077 232.097 120.269C234.07 120.418 235.748 118.889 237.66 118.377C239.979 117.756 242.428 118.685 244.519 119.864C246.611 121.042 248.598 122.508 250.926 123.096C253.654 123.784 256.562 123.181 259.165 122.115C260.281 121.659 261.385 121.101 262.216 120.227C263.045 119.354 263.565 118.11 263.316 116.931Z" fill="#391A69"/>
<path fill-rule="evenodd" clip-rule="evenodd" d="M221.64 116.521L258.677 116.31C257.455 113.788 255.344 111.8 253.065 110.17C248.152 106.655 242.176 104.541 236.137 104.603C230.098 104.665 218.014 112.359 213.756 116.643C210.349 120.071 210.452 122.953 210.452 122.953C210.029 127.767 212.867 133.147 214.066 137.829C214.684 140.245 215.951 147.567 215.951 147.567H215.952C217.991 147.503 218.704 145.86 218.338 143.852L217.737 135.952C217.737 135.952 224.535 130.83 220.999 121.9C220.451 121.196 219.235 117.931 221.64 116.521Z" fill="#391A69"/>
<path fill-rule="evenodd" clip-rule="evenodd" d="M217.159 135.427C215.274 128.868 213.543 121.84 215.547 115.316C215.181 115.301 214.814 115.286 214.447 115.271L213.989 115.605C211.917 114.908 209.438 115.698 208.151 117.464C206.864 119.23 206.87 121.832 208.167 123.592C205.974 123.489 203.868 125.324 203.668 127.511C203.53 129.02 204.186 130.479 204.859 131.838C205.533 133.195 206.257 134.602 206.267 136.118C206.276 137.634 205.306 139.28 203.801 139.46C204.475 141.013 206.359 141.929 207.996 141.498C207.476 142.78 206.582 143.908 205.453 144.707C207.865 146.35 211.177 145.789 213.801 144.511C215.358 143.753 216.886 142.672 217.522 141.062C218.226 139.277 217.689 137.271 217.159 135.427Z" fill="#391A69"/>
<mask id="mask1_795_14828" style="mask-type:luminance" maskUnits="userSpaceOnUse" x="275" y="218" width="9" height="52">
<path fill-rule="evenodd" clip-rule="evenodd" d="M282.551 269.033C281.742 263.089 280.766 256.04 279.702 248.48C277.956 236.086 276.358 225.069 275.3 218.061C281.717 234.153 284.229 251.789 282.551 269.033Z" fill="white"/>
</mask>
<g mask="url(#mask1_795_14828)">
<path fill-rule="evenodd" clip-rule="evenodd" d="M275.3 269.033H284.229V218.061H275.3V269.033Z" fill="#4B376E"/>
</g>
<path fill-rule="evenodd" clip-rule="evenodd" d="M282.548 269.05L282.187 268.233L274.938 217.167C275.06 217.464 275.181 217.762 275.299 218.06C276.357 225.069 277.955 236.086 279.701 248.48C280.766 256.039 281.742 263.088 282.55 269.033C282.549 269.039 282.549 269.044 282.548 269.05Z" fill="#5D4387"/>
<path fill-rule="evenodd" clip-rule="evenodd" d="M354.889 287.955C354.803 288.093 352.559 286.853 349.877 285.187C347.195 283.52 345.091 282.058 345.177 281.92C345.263 281.782 347.505 283.021 350.189 284.687C352.87 286.354 354.973 287.817 354.889 287.955Z" fill="#EBA87B"/>
<path fill-rule="evenodd" clip-rule="evenodd" d="M358.538 283.585C358.454 283.724 356.372 282.621 353.887 281.125C351.403 279.627 349.457 278.3 349.542 278.161C349.626 278.022 351.707 279.124 354.192 280.621C356.676 282.119 358.623 283.446 358.538 283.585Z" fill="#EBA87B"/>
<path fill-rule="evenodd" clip-rule="evenodd" d="M353.566 275.41C353.657 275.244 355.521 276.226 357.689 277.6C359.86 278.984 361.61 280.063 361.567 280.172C361.486 280.364 359.547 279.484 357.378 278.098C355.199 276.72 353.502 275.531 353.566 275.41Z" fill="#EBA87B"/>
<path fill-rule="evenodd" clip-rule="evenodd" d="M376.928 246.758C376.928 246.769 376.832 246.779 376.645 246.789C376.421 246.797 376.147 246.806 375.81 246.818C375.03 246.832 373.959 246.85 372.604 246.874C369.77 246.895 365.753 246.928 360.81 246.967C350.81 246.989 337.074 247.019 321.902 247.053C320.952 247.052 320.008 247.052 319.07 247.052C318.179 246.984 317.372 247.376 316.911 248.072C316.017 249.683 315.136 251.271 314.27 252.833C312.534 255.965 310.86 258.987 309.265 261.868C306.068 267.613 303.186 272.788 300.757 277.152C298.335 281.46 296.367 284.961 294.977 287.432C294.303 288.606 293.77 289.535 293.38 290.211C293.207 290.501 293.066 290.736 292.952 290.927C292.853 291.086 292.798 291.167 292.789 291.161C292.78 291.156 292.818 291.067 292.899 290.897C293.001 290.699 293.125 290.455 293.277 290.154C293.643 289.464 294.143 288.517 294.778 287.319C296.129 284.826 298.041 281.294 300.395 276.949C302.793 272.567 305.636 267.369 308.793 261.603C310.378 258.716 312.044 255.689 313.768 252.549C314.638 250.976 315.524 249.375 316.422 247.75C316.971 246.874 318.083 246.379 319.07 246.466C320.008 246.466 320.952 246.465 321.902 246.465C337.074 246.499 350.81 246.528 360.81 246.551C365.753 246.59 369.77 246.622 372.604 246.644C373.959 246.667 375.03 246.686 375.81 246.7C376.148 246.711 376.421 246.721 376.645 246.729C376.832 246.739 376.928 246.749 376.928 246.758Z" fill="#1B6969"/>
<path fill-rule="evenodd" clip-rule="evenodd" d="M189.479 254.789C188.175 254.023 186.573 253.282 184.768 252.754C182.672 252.147 180.653 251.928 178.992 251.928C178.481 251.928 178.005 251.948 177.57 251.985C176.138 252.102 175.154 252.336 174.786 252.462C174.018 252.553 173.235 252.684 172.434 252.861C172.034 252.949 170.654 253.516 170.122 253.516C170.085 253.516 170.051 253.513 170.022 253.507C169.593 253.414 169.183 253.06 169.188 252.62C169.193 252.078 169.766 251.742 170.27 251.54C172.582 250.609 175.37 250.142 178.115 250.142C183.084 250.142 187.91 251.671 189.5 254.739C189.493 254.756 189.486 254.773 189.479 254.789ZM187.425 254.35C184.926 253.45 182.539 252.781 180.103 252.484C181.474 252.605 183.014 252.859 184.604 253.319C185.612 253.613 186.557 253.968 187.425 254.35Z" fill="#4B376E"/>
<path fill-rule="evenodd" clip-rule="evenodd" d="M189.389 255.09C188.725 254.829 188.071 254.582 187.425 254.349C186.557 253.968 185.611 253.613 184.604 253.318C183.014 252.859 181.474 252.605 180.103 252.484C179.193 252.372 178.277 252.313 177.345 252.313C176.506 252.313 175.656 252.361 174.786 252.462C175.154 252.336 176.138 252.102 177.57 251.985C178.005 251.949 178.481 251.928 178.992 251.928C180.653 251.928 182.672 252.147 184.768 252.754C186.573 253.282 188.175 254.023 189.479 254.789C189.405 254.978 189.373 255.082 189.389 255.09ZM189.453 255.025C189.48 254.986 189.517 254.931 189.559 254.86C189.566 254.872 189.572 254.885 189.578 254.897L189.453 255.025Z" fill="#5D4387"/>
<path fill-rule="evenodd" clip-rule="evenodd" d="M189.388 255.09C189.372 255.082 189.404 254.979 189.478 254.789C189.485 254.773 189.492 254.756 189.499 254.739C189.519 254.78 189.539 254.819 189.559 254.86C189.516 254.931 189.48 254.986 189.452 255.025L189.388 255.09Z" fill="#051317"/>
<path fill-rule="evenodd" clip-rule="evenodd" d="M276.462 141.613L292.412 143.37C296.25 137.905 301.6 133.398 308.185 130.564C327.122 122.414 349.08 131.159 357.23 150.097C365.38 169.034 356.636 190.993 337.698 199.143C318.761 207.293 296.802 198.548 288.651 179.609C285.249 171.703 284.802 163.271 286.802 155.535L286.79 155.553L276.462 141.613Z" fill="white"/>
<path d="M321.184 169.279V167.441C321.184 166.294 321.395 165.238 321.816 164.274C322.237 163.283 322.961 162.24 323.987 161.145C324.724 160.363 325.237 159.698 325.526 159.151C325.816 158.577 325.961 157.991 325.961 157.391C325.961 156.661 325.684 156.088 325.132 155.67C324.605 155.253 323.842 155.045 322.842 155.045C320.395 155.045 318.092 155.918 315.934 157.665L314 153.207C315.158 152.216 316.566 151.434 318.224 150.86C319.882 150.287 321.566 150 323.276 150C325.013 150 326.539 150.287 327.855 150.86C329.171 151.408 330.184 152.19 330.895 153.207C331.632 154.197 332 155.358 332 156.687C332 157.886 331.724 158.994 331.171 160.011C330.645 161.028 329.697 162.097 328.329 163.218C327.092 164.235 326.237 165.121 325.763 165.877C325.316 166.633 325.039 167.363 324.934 168.067L324.737 169.279H321.184ZM319.763 178V171.743H326.158V178H319.763Z" fill="#4B376E"/>
</svg>
