<svg xmlns="http://www.w3.org/2000/svg" width="24" height="24" fill="none"><path fill="#1AD3D3" fill-rule="evenodd" d="M21.128 2.757a6 6 0 0 0-8.41-.073l-1.731 1.72-.084.094a1 1 0 0 0 1.494 1.325l1.72-1.71.165-.15a3.999 3.999 0 0 1 5.432.209 4 4 0 0 1 .049 5.607l-2.988 2.988-.168.158a4 4 0 0 1-5.864-.59 1 1 0 0 0-1.602 1.197 6 6 0 0 0 9.048.649l3-3 .176-.19a6.003 6.003 0 0 0-.237-8.234Zm-6.385 7.578a6 6 0 0 0-4.376-2.391l-.274-.014a6 6 0 0 0-4.398 1.757l-3 3-.176.19a6 6 0 0 0 8.647 8.307l1.723-1.723.083-.095a1 1 0 0 0-1.497-1.32l-1.71 1.71-.164.15a3.998 3.998 0 0 1-5.431-.21 4 4 0 0 1-.049-5.608l2.988-2.987.168-.16a4 4 0 0 1 5.864.591 1 1 0 0 0 1.602-1.197Z" clip-rule="evenodd"/></svg>