<svg xmlns="http://www.w3.org/2000/svg" width="24" height="24" fill="none"><path fill="#1AD3D3" fill-rule="evenodd" d="M12.241 1.465a5.002 5.002 0 0 1 7.246 6.894l-.172.18-9.2 9.19a3.001 3.001 0 0 1-4.378-4.1l.135-.144 8.49-8.48a1 1 0 0 1 1.496 1.32l-.083.095-8.49 8.48a1.001 1.001 0 0 0 1.322 1.498l.095-.083 9.2-9.19a3.002 3.002 0 0 0-4.103-4.38l-.144.134-9.19 9.19a5.003 5.003 0 0 0 6.895 7.248l.181-.172 9.19-9.19a1 1 0 0 1 1.498 1.32l-.084.094-9.19 9.19A7.003 7.003 0 0 1 2.87 10.844l.182-.189 9.19-9.19Z" clip-rule="evenodd"/></svg>