<svg width="24" height="25" viewBox="0 0 24 25" fill="none" xmlns="http://www.w3.org/2000/svg">
<path fill-rule="evenodd" clip-rule="evenodd" d="M16.3933 2.23616C16.3355 1.73882 15.9128 1.35278 15.4 1.35278C14.8477 1.35278 14.4 1.8005 14.4 2.35278V3.35278H9.4V2.35278L9.39327 2.23616C9.33551 1.73882 8.91284 1.35278 8.4 1.35278C7.84772 1.35278 7.4 1.8005 7.4 2.35278V3.35278H7C4.79086 3.35278 3 5.14364 3 7.35278V17.3528C3 19.5619 4.79086 21.3528 7 21.3528H17C19.2091 21.3528 21 19.5619 21 17.3528V7.35278C21 5.14364 19.2091 3.35278 17 3.35278H16.4V2.35278L16.3933 2.23616ZM7.40673 5.4694L7.4 5.35278H7C5.89543 5.35278 5 6.24821 5 7.35278V7.85278H19V7.35278C19 6.24821 18.1046 5.35278 17 5.35278H16.4C16.4 5.90507 15.9523 6.35278 15.4 6.35278C14.8872 6.35278 14.4645 5.96674 14.4067 5.4694L14.4 5.35278H9.4C9.4 5.90507 8.95228 6.35278 8.4 6.35278C7.88716 6.35278 7.46449 5.96674 7.40673 5.4694ZM19 9.85278H5V17.3528C5 18.4574 5.89543 19.3528 7 19.3528H17C18.1046 19.3528 19 18.4574 19 17.3528V9.85278Z" fill="#887D92"/>
</svg>
