<svg xmlns="http://www.w3.org/2000/svg" width="17" height="17" fill="none"><path fill="#1FC6C6" fill-rule="evenodd" d="M16.041 1.242a1.143 1.143 0 0 0-1.57-.001L8.5 6.868 2.528 1.24a1.143 1.143 0 0 0-1.569.001l-.065.062a1.143 1.143 0 0 0 .001 1.662L6.768 8.5.895 14.034a1.143 1.143 0 0 0-.001 1.662l.065.062c.44.416 1.129.417 1.57.001L8.5 10.132l5.972 5.627c.44.416 1.129.415 1.569-.001l.065-.062a1.143 1.143 0 0 0-.001-1.662L10.232 8.5l5.873-5.534c.478-.45.479-1.21.001-1.662l-.065-.062Z" clip-rule="evenodd"/></svg>