<svg xmlns="http://www.w3.org/2000/svg" width="19.8" height="20.7" fill="none"><path fill="#FFF" d="M.9 0a.9.9 0 0 0-.9.9v14.4a.9.9 0 0 0 .9.9h6.298V18h-3.75a.898.898 0 0 0-.616.244l-1.79 1.679a.45.45 0 0 0 .31.777h17.096a.45.45 0 0 0 .31-.779l-1.79-1.678a.903.903 0 0 0-.615-.243h-3.755v-1.8H18.9a.899.899 0 0 0 .9-.9V.9a.9.9 0 0 0-.9-.9H.9Zm.9 1.8H18v12.6H1.8V1.8Zm5.383 2.691a.901.901 0 0 0-.62.273l-2.7 2.7a.9.9 0 0 0 0 1.272l2.7 2.7a.902.902 0 0 0 1.483-.283.902.902 0 0 0-.21-.99L5.772 8.1l2.064-2.064a.903.903 0 0 0 .202-.996.9.9 0 0 0-.855-.549Zm5.408 0a.9.9 0 0 0-.627 1.545L14.027 8.1l-2.063 2.064a.897.897 0 0 0-.013 1.285.894.894 0 0 0 .645.264.9.9 0 0 0 .64-.277l2.7-2.7a.9.9 0 0 0 0-1.272l-2.7-2.7a.901.901 0 0 0-.645-.273Z"/></svg>