<svg xmlns="http://www.w3.org/2000/svg" width="21" height="22" fill="none"><path fill="#fff" d="M1.5.6a.9.9 0 0 0-.9.9v14.4a.9.9 0 0 0 .9.9h6.298v1.8h-3.75a.899.899 0 0 0-.616.244l-1.79 1.679a.45.45 0 0 0 .31.777h17.096a.45.45 0 0 0 .31-.779l-1.79-1.678a.903.903 0 0 0-.615-.243h-3.755v-1.8H19.5a.9.9 0 0 0 .9-.9V1.5a.9.9 0 0 0-.9-.9h-18Zm.9 1.8h16.2V15H2.4V2.4Zm5.383 2.691a.9.9 0 0 0-.62.273l-2.7 2.7a.9.9 0 0 0 0 1.272l2.7 2.7a.9.9 0 1 0 1.273-1.272L6.373 8.7l2.063-2.064a.9.9 0 0 0-.653-1.545Zm5.408 0a.9.9 0 0 0-.627 1.545L14.627 8.7l-2.063 2.064a.9.9 0 1 0 1.272 1.272l2.7-2.7a.9.9 0 0 0 0-1.272l-2.7-2.7a.899.899 0 0 0-.645-.273Z"/></svg>