<svg xmlns="http://www.w3.org/2000/svg" width="24" height="24" fill="none"><path fill="#1FC6C6" d="m15.879 2.879-8.586 8.585a1 1 0 0 0-.293.708v4a1 1 0 0 0 1 1h4a1 1 0 0 0 .707-.293l8.586-8.586a3 3 0 0 0 0-4.243L20.12 2.88a3 3 0 0 0-4.242 0zm4 2.585.083.095a1 1 0 0 1-.083 1.32l-8.295 8.293H9v-2.586l8.293-8.293a1 1 0 0 1 1.414 0l1.172 1.171zM11.03 4.172a1 1 0 0 0-1-1H6l-.217.004A5 5 0 0 0 1 8.172v10l.005.216A5 5 0 0 0 6 23.172h10l.217-.005A5 5 0 0 0 21 18.172v-4.919l-.007-.116a1 1 0 0 0-1.993.116v4.919l-.005.176A3 3 0 0 1 16 21.172H6l-.176-.006A3 3 0 0 1 3 18.172v-10l.005-.177A3 3 0 0 1 6 5.172h4.03l.117-.007a1 1 0 0 0 .884-.993z"/></svg>