<svg xmlns="http://www.w3.org/2000/svg" width="24" height="24" fill="none"><path stroke="current" stroke-linecap="round" stroke-linejoin="round" stroke-width="2" d="M9.58 12.98c-.623-.51-1-1.202-1-1.979 0-1.556 1.526-2.81 3.42-2.81.937 0 1.8.312 2.41.821M15.357 11.499c-.25 1.145-1.35 2.048-2.743 2.256"/>
<path stroke="currentColor" stroke-linecap="round" stroke-linejoin="round" stroke-width="2" d="M6.222 15.736C4.506 14.63 3.053 13.014 2 11c1.064-2.023 2.526-3.647 4.253-4.762A10.52 10.52 0 0 1 12 4.52c2.064 0 4.042.614 5.769 1.737M20.052 8.208A13.271 13.271 0 0 1 22 11c-2.127 4.045-5.884 6.481-10 6.481-.933 0-1.853-.124-2.737-.367M20.527 4 3.474 18"/></svg>