<svg xmlns="http://www.w3.org/2000/svg" width="24" height="24" fill="none"><path fill="#D9D9D9" fill-rule="evenodd" d="M21 2a1 1 0 0 1 .993.883L22 3v18a1 1 0 0 1-.883.993L21 22h-6a1 1 0 0 1-.117-1.993L15 20h5V4h-5a1 1 0 0 1-.993-.883L14 3a1 1 0 0 1 .883-.993L15 2h6ZM10.613 6.21l.094.083 5 5a1 1 0 0 1 .083 1.32l-.083.094-5 5a1 1 0 0 1-1.497-1.32l.083-.094L12.585 13H3a1 1 0 0 1-.117-1.993L3 11h9.585L9.293 7.707a1 1 0 0 1-.083-1.32l.083-.094a1 1 0 0 1 1.218-.153l.102.07Z" clip-rule="evenodd"/></svg>