<svg xmlns="http://www.w3.org/2000/svg" width="22" height="24" fill="none"><path fill="#D9D9D9" fill-rule="evenodd" d="M20.113 17.142a7.145 7.145 0 0 0 .04-6.822c-1.143-2.141-3.297-3.595-5.756-3.884-1.084-2.47-3.472-4.163-6.218-4.406-2.747-.243-5.409 1.002-6.932 3.243a7.15 7.15 0 0 0-.36 7.484l-.58 1.977c-.13.447-.003.928.334 1.256.337.329.83.453 1.289.326l2.03-.565a7.627 7.627 0 0 0 2.642.811c.827 1.885 2.428 3.345 4.413 4.025a7.68 7.68 0 0 0 6.026-.451l2.03.565c.458.127.951.003 1.288-.326.337-.328.465-.809.334-1.255l-.58-1.978Zm-1.452-.467a.714.714 0 0 0-.076.574l.573 1.956-2.007-.559a.767.767 0 0 0-.59.075 6.14 6.14 0 0 1-4.602.62 5.985 5.985 0 0 1-3.679-2.766 7.538 7.538 0 0 0 5.222-2.882 7.157 7.157 0 0 0 1.376-5.692c1.858.427 3.397 1.691 4.144 3.404a5.718 5.718 0 0 1-.36 5.27Z" clip-rule="evenodd"/></svg>