<svg xmlns="http://www.w3.org/2000/svg" width="22" height="24" fill="none"><path fill="#D9D9D9" fill-rule="evenodd" d="M11.042 2.636a2 2 0 0 0-2.084 0l-6.109 3.73c-1.29.787-1.274 2.665.028 3.431l6.132 3.605a2 2 0 0 0 2.032-.002l6.093-3.6c1.299-.769 1.312-2.643.024-3.43l-6.116-3.734Zm6.561 8.835a1 1 0 0 1 1.086 1.675l-.098.064-6.594 3.747a2.906 2.906 0 0 1-2.7.096l-.182-.095-6.517-3.751a1 1 0 0 1 .894-1.786l.104.053 6.514 3.75c.24.136.533.153.788.049l.107-.053 6.598-3.75Zm-.097 3.66a1 1 0 0 1 1.086 1.675l-.098.064-6.594 3.747a2.906 2.906 0 0 1-2.7.096l-.182-.095-6.517-3.751a1 1 0 0 1 .894-1.786l.104.053 6.514 3.749c.24.137.533.154.788.05l.107-.053 6.598-3.75Z" clip-rule="evenodd"/></svg>