<svg xmlns="http://www.w3.org/2000/svg" width="24" height="24" fill="none"><path fill="#1FC6C6" d="M12 0a3 3 0 0 0-3 3v.17l-.007.094a.649.649 0 0 1-.225.397l-.062.044-.06.013a1 1 0 0 0-.13.047.65.65 0 0 1-.717-.13l-.052-.052a3 3 0 0 0-5.124 2.122 3 3 0 0 0 .745 1.978l.195.204c.178.182.23.466.122.71-.116.308-.352.477-.618.483H3a3 3 0 1 0 0 6h.17a.649.649 0 0 1 .59.394.654.654 0 0 1-.125.727l-.052.052a3 3 0 0 0 2.122 5.124 3 3 0 0 0 1.978-.745l.204-.195a.647.647 0 0 1 .71-.122c.308.116.477.352.483.618V21a3 3 0 1 0 6 0v-.17a.649.649 0 0 1 .394-.59.654.654 0 0 1 .727.125l.052.052a3 3 0 0 0 4.38-4.1l-.196-.204a.647.647 0 0 1-.122-.71.654.654 0 0 1 .599-.403H21a3 3 0 1 0 0-6h-.17l-.094-.007a.649.649 0 0 1-.397-.225l-.045-.062-.012-.06a1 1 0 0 0-.047-.13.65.65 0 0 1 .13-.717l.052-.052a3 3 0 0 0-4.1-4.38l-.204.196a.647.647 0 0 1-.71.122.654.654 0 0 1-.403-.599V3a3 3 0 0 0-3-3Zm0 2a1 1 0 0 1 1 1v.09a2.651 2.651 0 0 0 1.606 2.43 2.646 2.646 0 0 0 2.913-.535l.068-.068a1 1 0 1 1 1.416 1.415l-.06.06-.13.143a2.654 2.654 0 0 0-.535 2.433L18.32 9a1 1 0 0 0 .08.394A2.65 2.65 0 0 0 20.827 11H21a1 1 0 1 1 0 2h-.09a2.651 2.651 0 0 0-2.43 1.606 2.646 2.646 0 0 0 .535 2.913l.068.068a1 1 0 1 1-1.415 1.416l-.06-.06a2.654 2.654 0 0 0-2.932-.538 2.646 2.646 0 0 0-1.596 2.421V21a1 1 0 1 1-2 0v-.09a2.66 2.66 0 0 0-1.558-2.376l-.177-.072c-.932-.414-2.09-.204-2.864.553l-.068.068a1 1 0 1 1-1.416-1.415l.06-.06c.765-.783.975-1.94.538-2.932a2.646 2.646 0 0 0-2.421-1.596H3a1 1 0 1 1 0-2h.09a2.66 2.66 0 0 0 2.376-1.558l.073-.177c.413-.932.203-2.09-.554-2.864l-.068-.068a1 1 0 1 1 1.415-1.416l.06.06.143.13a2.654 2.654 0 0 0 2.433.536L9 5.68a1 1 0 0 0 .394-.08A2.65 2.65 0 0 0 11 3.173V3a1 1 0 0 1 1-1Zm0 6a4 4 0 1 0 0 8 4 4 0 0 0 0-8Zm0 2a2 2 0 1 1 0 4 2 2 0 0 1 0-4Z"/></svg>