<svg xmlns="http://www.w3.org/2000/svg" width="24" height="24" fill="none"><path fill="#23DCDC" fill-rule="evenodd" d="M22.008 11.136c-.6-2-2.4-3.5-4.4-3.5h-1.2c-.7-3-3.2-5.2-6.2-5.6-3-.3-5.9 1.3-7.3 4-1.2 2.5-1.465 6.62.792 9.019.615.248 1.413.45 2.33.612.058-.33.198-.653.424-.942l.126-.14 4-4a2 2 0 0 1 2.64-.165l.049.04.139.126 4 4c.363.363.557.83.583 1.305 1.62-.19 2.848-.475 3.319-.836.998-.733.998-2.52.698-3.92ZM16.003 17a1 1 0 0 0 .698-1.707l-4-4-.094-.083a1 1 0 0 0-1.32.083l-4 4-.084.094a.995.995 0 0 0-.193.431l.006.001a.999.999 0 0 0 .277.888l.094.083a.997.997 0 0 0 1.314-.083l2.293-2.292v1.716H11V21l.007.117A1 1 0 0 0 12 22h.003a1 1 0 0 0 .99-1v-6.585l1.715 1.713h.006l.579.58.094.082c.18.14.399.21.616.21Z" clip-rule="evenodd"/></svg>