<svg xmlns="http://www.w3.org/2000/svg" width="524" height="292" fill="none"><rect width="524" height="182" y="109" fill="#1AD3D3" opacity=".1" rx="24"/><path fill="#302B55" d="M90.963 223v-34.02h-80.19v-29.97l87.21-126.36h34.02v123.39h25.92v32.94h-25.92V223h-41.04Zm0-66.96v-62.1l-42.12 62.1h42.12Z"/><path fill="#966ADC" d="M80.963 210v-34.02H.773v-29.97l87.21-126.36h34.02v123.39h25.92v32.94h-25.92V210h-41.04Zm0-66.96v-62.1l-42.12 62.1h42.12Z"/><path fill="#302B55" d="M455.963 223v-34.02h-80.19v-29.97l87.21-126.36h34.02v123.39h25.92v32.94h-25.92V223h-41.04Zm0-66.96v-62.1l-42.12 62.1h42.12Z"/><path fill="#966ADC" d="M445.963 210v-34.02h-80.19v-29.97l87.21-126.36h34.02v123.39h25.92v32.94h-25.92V210h-41.04Zm0-66.96v-62.1l-42.12 62.1h42.12Z"/><path fill="#302B55" d="M260.053 225.97c-23.04 0-40.68-8.55-52.92-25.65-12.06-17.1-18.09-41.49-18.09-73.17s6.03-55.8 18.09-72.36c12.24-16.74 29.88-25.11 52.92-25.11 23.04 0 40.59 8.37 52.65 25.11 12.24 16.56 18.36 40.68 18.36 72.36s-6.12 56.07-18.36 73.17c-12.06 17.1-29.61 25.65-52.65 25.65Zm0-34.02c10.44 0 18.18-5.13 23.22-15.39 5.04-10.44 7.56-26.91 7.56-49.41 0-22.5-2.52-38.7-7.56-48.6-5.04-9.9-12.78-14.85-23.22-14.85s-18.18 4.95-23.22 14.85c-5.04 9.9-7.56 26.1-7.56 48.6s2.52 38.97 7.56 49.41c5.04 10.26 12.78 15.39 23.22 15.39Z"/><path fill="#966ADC" d="M248.053 212.97c-23.04 0-40.68-8.55-52.92-25.65-12.06-17.1-18.09-41.49-18.09-73.17s6.03-55.8 18.09-72.36c12.24-16.74 29.88-25.11 52.92-25.11 23.04 0 40.59 8.37 52.65 25.11 12.24 16.56 18.36 40.68 18.36 72.36s-6.12 56.07-18.36 73.17c-12.06 17.1-29.61 25.65-52.65 25.65Zm0-34.02c10.44 0 18.18-5.13 23.22-15.39 5.04-10.44 7.56-26.91 7.56-49.41 0-22.5-2.52-38.7-7.56-48.6-5.04-9.9-12.78-14.85-23.22-14.85s-18.18 4.95-23.22 14.85c-5.04 9.9-7.56 26.1-7.56 48.6s2.52 38.97 7.56 49.41c5.04 10.26 12.78 15.39 23.22 15.39Z"/><mask id="a" width="524" height="182" x="0" y="109" maskUnits="userSpaceOnUse" style="mask-type:luminance"><rect width="523.99" height="181.816" y="109.064" fill="#fff" rx="24"/></mask><g fill-rule="evenodd" clip-rule="evenodd" mask="url(#a)"><path fill="#684A98" d="M303.553 249.581c-.495-3.314-10.404-14.276-10.404-14.276s-4.954-19.884-6.44-25.748c-.371-1.465-1.168-3.13-2.154-4.802-3.458-5.866-8.528-10.616-14.464-13.953l-13.712-7.711-3.281-7.299-32.946-16.927-8.933 15.758s-21.694 6.895-24.564 11.82c-2.872 4.925 1.424 70.917 1.424 70.917s-9.081 38.085-10.995 45.965c-1.914 7.88.617 17.282.617 17.282l16.156-20.278c5.02-6.301 16.045-9.196 23.962-9.084l67.655.299-2.691-18.952 54.706 10.639s9.413-18.354 10.156-18.724c.743-.369-44.092-14.926-44.092-14.926Z"/><path fill="#1AD3D3" d="m313.98 246.513-23.573 41.227-58.081 1.264-.144 2.63 56.238-.418 1.784-.061 59.386.116 12.001-20.696 15.33-21.971c1.004-1.44-.031-3.415-1.787-3.409l-59.28.226a2.171 2.171 0 0 0-1.874 1.092Z"/><path fill="#4D3277" d="M207.559 291.244h-.349c-4.627-.012-9.296-.142-13.789-1.249-4.35-1.07-8.162-3.864-11.139-7.225 13.984 3.152 29.118 5.311 29.118 5.311l1.206-5.087a199.433 199.433 0 0 1 15.416 3.839c.075 1.276-.99 2.404-2.207 2.796a4.987 4.987 0 0 1-1.548.226c-.749 0-1.508-.129-2.242-.286-1.133-.242-2.27-.552-3.423-.552-.12 0-.24.004-.361.01-1.906.114-3.618 1.157-5.455 1.685-1.688.488-3.467.532-5.227.532Z"/><path fill="#FFD3B5" d="M361.591 270.575s3.051 2.797 2.569 5.173c-.482 2.376-.321 4.143-2.569 4.304 0 0 .16 3.052-3.053 3.534 0 0 .689 3.725-3.647 4.368 0 0-1.332 3.983-4.062 3.021-2.731-.965-4.497-2.09-4.497-2.09l-.803-1.444s-4.024-1.513-3.032-3.785c.602-1.378 2.682-1.737 2.682-1.737s-.865-2.023.257-3.533c.965-1.295 4.106-.224 4.106-.224s-.186-1.673.995-3.074c1.069-1.268 6.069 2.178 6.069 2.178l2.727-3.258 2.258-3.433Z"/></g><path fill="#FFFFFE" fill-rule="evenodd" d="M218.743 180.819c-.474-.483 3.825 14.032 9.219 28.815 2.907 7.966 4.364 16.414 4.364 24.922v53.526l32.44-2.203-4.849-35.26s-3.955-22.745-5.062-31.395c-1.014-7.921-4.498-29.4-4.498-29.4s-18.031 4.828-31.614-9.005Z" clip-rule="evenodd"/><path fill="#4B376E" fill-rule="evenodd" d="M290.728 262.88c-.039-.003-.049-.294-.002-.816.045-.523.169-1.275.426-2.182.5-1.802 1.655-4.238 3.707-6.293 2.052-2.057 4.484-3.217 6.288-3.721a12.034 12.034 0 0 1 2.179-.432c.523-.047.813-.036.817.001.013.101-1.136.224-2.87.827-1.724.591-4.028 1.766-5.997 3.74-1.97 1.973-3.14 4.279-3.728 6.006-.6 1.733-.721 2.884-.82 2.87ZM292.399 250.041c-.07-.13 2.061-1.208 4.953-1.435 2.89-.25 5.17.468 5.121.605-.034.176-2.291-.261-5.072-.019-2.784.216-4.938 1.015-5.002.849Z" clip-rule="evenodd"/><path fill="#FFD3B5" fill-rule="evenodd" d="m277.411 283.342-7.959-8.454-16.374-4.143s-15.003 4.494-15.362 4.481c-.359-.013-13.058-3.47-13.058-3.47l-4.438 16.279 22.871 1.566 26.113-1.045s1.362-1.268.555-2.136c-.808-.866 4.366 1.466 4.974 1.495.599.028 1.791.495 2.598-.481.55-.665 1.296-2.801.08-4.092Z" clip-rule="evenodd"/><path fill="#EBA87B" fill-rule="evenodd" d="M269.758 286.418c-.03.082-1.014-.236-2.601-.739a114.276 114.276 0 0 0-6.239-1.806 124.213 124.213 0 0 0-6.341-1.422c-1.631-.326-2.644-.531-2.633-.615.01-.077 1.045-.018 2.702.205 1.659.224 3.94.629 6.418 1.262a55.647 55.647 0 0 1 6.231 1.984c1.56.607 2.493 1.06 2.463 1.131ZM277.411 283.339c-.034.082-1.402-.428-3.633-1.171-2.23-.752-5.344-1.673-8.808-2.64-3.46-1.028-6.541-2.056-8.877-2.192-2.327-.198-3.747.262-3.77.147-.009-.032.332-.174.981-.33.649-.157 1.618-.275 2.814-.233 2.413.034 5.589 1.026 9.013 2.042 3.465.968 6.582 1.957 8.787 2.814 1.104.422 1.984.798 2.585 1.074.6.277.922.453.908.489Z" clip-rule="evenodd"/><path fill="#684A98" fill-rule="evenodd" d="M186.654 186.442s-11.804 8.208-14.675 20.028c-2.871 11.819-15.314 60.082-12.761 67.305 2.552 7.223 52.181 14.306 52.181 14.306l5.88-24.813-25.203-6.894s.319-22.983.639-32.504c.318-9.521-6.061-37.428-6.061-37.428Z" clip-rule="evenodd"/><path fill="#FFFFFE" fill-rule="evenodd" d="m216.949 266.971 8.121 1.999-4.886 18.728-7.979-1.279 4.744-19.448Z" clip-rule="evenodd"/><path fill="#4B376E" fill-rule="evenodd" d="M159.032 271.221c.041 0-.024.413.12 1.17.161.743.643 1.824 1.73 2.816 2.157 2.008 6.276 3.681 11.5 4.621l.017.002.019.007c2.389.785 5.106 1.407 8.015 2.066 2.913.651 6.037 1.318 9.34 1.99 6.603 1.349 13.91 2.77 21.65 4.219l-.337.218 1.755-7.202 4.019-16.439.199.341-22.398-6.394-.014-.003-.012-.006c-3.42-1.4-6.821-1.911-9.77-1.711-2.962.136-5.445.928-7.373 1.732-1.931.827-3.313 1.726-4.236 2.346l-1.026.748c-.233.168-.356.25-.363.241-.008-.009.101-.109.32-.295.222-.181.543-.466.99-.804a22.91 22.91 0 0 1 4.211-2.473c1.935-.849 4.443-1.689 7.455-1.862 2.997-.237 6.47.251 9.968 1.654l-.026-.009 22.429 6.291.263.073-.065.265-4 16.444c-.601 2.467-1.197 4.9-1.758 7.201l-.066.269-.271-.051a1101.218 1101.218 0 0 1-21.65-4.282 437.771 437.771 0 0 1-9.339-2.045c-2.913-.681-5.617-1.322-8.045-2.147l.036.01c-5.281-1.005-9.411-2.744-11.587-4.858-1.094-1.042-1.564-2.183-1.69-2.953-.112-.783-.01-1.19-.01-1.19Z" clip-rule="evenodd"/><path fill="#4B376E" fill-rule="evenodd" d="M193.438 258.019c-.07.074-.91-.697-2.424-1.711a23.664 23.664 0 0 0-6.409-2.992 23.724 23.724 0 0 0-7.014-.918c-1.822.044-2.945.242-2.963.141-.016-.057 1.087-.404 2.943-.556 1.849-.155 4.458-.024 7.198.769 2.737.801 5.008 2.091 6.484 3.217 1.484 1.124 2.228 2.008 2.185 2.05ZM215.868 209.352a35.424 35.424 0 0 1-2.768-11.775 79.357 79.357 0 0 0 3.061 7.557l.345.743.158-.804c.346-1.756 1.714-3.059 3.099-3.508a3.95 3.95 0 0 1 1.926-.15c1.162.36 2.213 1.146 2.983 2.128 1.09 1.388 1.679 3.126 2.036 4.871-1.434-1.49-3.356-2.756-5.334-2.756-.346 0-.695.038-1.042.122-1.871.447-3.235 2.054-4.464 3.572Zm.484-5.1a90.784 90.784 0 0 1-1.779-4.329l1.809 4.248-.03.081Zm.204-.472c.34-.986 1.135-1.774 2.086-2.209a5.24 5.24 0 0 0-2.086 2.209Z" clip-rule="evenodd"/><path fill="#5D4387" fill-rule="evenodd" d="m216.508 205.878-.346-.743a79.101 79.101 0 0 1-3.06-7.557 32.142 32.142 0 0 1-.046-.978l.135.074 1.383 3.249a91.453 91.453 0 0 0 1.779 4.33l.03-.082.045.104c.03-.169.074-.334.129-.494a5.247 5.247 0 0 1 2.086-2.209 4.012 4.012 0 0 1 1.554-.368l.118-.001c.468 0 .93.074 1.375.213a3.95 3.95 0 0 0-1.926.15c-1.385.449-2.753 1.752-3.098 3.508l-.158.804Z" clip-rule="evenodd"/><path fill="#FFD3B5" fill-rule="evenodd" d="M259.529 128.417c-1.337-12.538-12.082-21.943-24.686-21.619l-1.253.032c-13.488 1.137-20.058 13.226-18.548 26.677l3.7 47.312 1.567 1.923c7.251 8.901 19.584 11.806 30.047 7.082l-1.037-15.221s12.935-2.352 12.761-15.34c-.083-6.274-1.308-19.18-2.551-30.846Z" clip-rule="evenodd"/><path fill="#EBA87B" fill-rule="evenodd" d="M249.421 174.58s-8.279.713-17.14-4.541c0 0 4.241 9.241 17.166 7.738l-.026-3.197Z" clip-rule="evenodd"/><path fill="#FFD3B5" fill-rule="evenodd" d="M216.555 143.068c-.223-.091-8.989-2.41-8.477 6.459.511 8.869 9.311 6.527 9.311 6.27.001-.254-.834-12.729-.834-12.729Z" clip-rule="evenodd"/><path fill="#391A69" fill-rule="evenodd" d="M263.316 116.931c-.247-1.177-1.408-2.173-2.601-1.996.637-.227 1.29-.463 1.791-.913.505-.449.827-1.169.615-1.81-.333-1.004-1.617-1.21-2.636-1.499a6.696 6.696 0 0 1-3.387-2.261c-1.234-1.56-1.709-3.588-2.777-5.266-1.379-2.174-3.778-3.67-6.337-3.952-2.559-.28-5.225.657-7.046 2.476-1.984-2.037-4.975-3.041-7.787-2.612-2.811.428-5.369 2.278-6.655 4.814-3.446-1.434-7.651-.843-10.567 1.487-2.915 2.33-4.42 6.302-3.782 9.979l8.088 4.956c.131-2.5 2.921-4.484 5.326-3.79 2.441.706 4.002 3.533 6.536 3.725 1.973.149 3.651-1.38 5.563-1.892 2.319-.621 4.768.308 6.859 1.487 2.092 1.178 4.079 2.644 6.407 3.232 2.728.688 5.636.085 8.239-.981 1.116-.456 2.22-1.014 3.051-1.888.829-.873 1.349-2.117 1.1-3.296Z" clip-rule="evenodd"/><path fill="#391A69" fill-rule="evenodd" d="m221.64 116.521 37.037-.211c-1.222-2.522-3.333-4.51-5.612-6.14-4.913-3.515-10.889-5.629-16.928-5.567-6.039.062-18.123 7.756-22.381 12.04-3.407 3.428-3.304 6.31-3.304 6.31-.423 4.814 2.415 10.194 3.614 14.876.618 2.416 1.885 9.738 1.885 9.738h.001c2.039-.064 2.752-1.707 2.386-3.715l-.601-7.9s6.798-5.122 3.262-14.052c-.548-.704-1.764-3.969.641-5.379Z" clip-rule="evenodd"/><path fill="#391A69" fill-rule="evenodd" d="M217.159 135.427c-1.885-6.559-3.616-13.587-1.612-20.111l-1.1-.045-.458.334c-2.072-.697-4.551.093-5.838 1.859s-1.281 4.368.016 6.128c-2.193-.103-4.299 1.732-4.499 3.919-.138 1.509.518 2.968 1.191 4.327.674 1.357 1.398 2.764 1.408 4.28.009 1.516-.961 3.162-2.466 3.342.674 1.553 2.558 2.469 4.195 2.038a7.335 7.335 0 0 1-2.543 3.209c2.412 1.643 5.724 1.082 8.348-.196 1.557-.758 3.085-1.839 3.721-3.449.704-1.785.167-3.791-.363-5.635Z" clip-rule="evenodd"/><mask id="b" width="9" height="52" x="275" y="218" maskUnits="userSpaceOnUse" style="mask-type:luminance"><path fill="#fff" fill-rule="evenodd" d="M282.551 269.033a4658.243 4658.243 0 0 0-2.849-20.553c-1.746-12.394-3.344-23.411-4.402-30.419 6.417 16.092 8.929 33.728 7.251 50.972Z" clip-rule="evenodd"/></mask><g mask="url(#b)"><path fill="#4B376E" fill-rule="evenodd" d="M275.3 269.033h8.929v-50.972H275.3v50.972Z" clip-rule="evenodd"/></g><path fill="#5D4387" fill-rule="evenodd" d="m282.548 269.05-.361-.817-7.249-51.066c.122.297.243.595.361.893 1.058 7.009 2.656 18.026 4.402 30.42a4339.45 4339.45 0 0 1 2.849 20.553l-.002.017Z" clip-rule="evenodd"/><path fill="#EBA87B" fill-rule="evenodd" d="M354.889 287.955c-.086.138-2.33-1.102-5.012-2.768-2.682-1.667-4.786-3.129-4.7-3.267.086-.138 2.328 1.101 5.012 2.767 2.681 1.667 4.784 3.13 4.7 3.268ZM358.538 283.585c-.084.139-2.166-.964-4.651-2.46-2.484-1.498-4.43-2.825-4.345-2.964.084-.139 2.165.963 4.65 2.46 2.484 1.498 4.431 2.825 4.346 2.964ZM353.566 275.41c.091-.166 1.955.816 4.123 2.19 2.171 1.384 3.921 2.463 3.878 2.572-.081.192-2.02-.688-4.189-2.074-2.179-1.378-3.876-2.567-3.812-2.688Z" clip-rule="evenodd"/><path fill="#1B6969" fill-rule="evenodd" d="M376.928 246.758c0 .011-.096.021-.283.031l-.835.029-3.206.056c-2.834.021-6.851.054-11.794.093l-38.908.086-2.832-.001c-.891-.068-1.698.324-2.159 1.02a13796.234 13796.234 0 0 0-7.646 13.796l-8.508 15.284-5.78 10.28c-.674 1.174-1.207 2.103-1.597 2.779l-.428.716c-.099.159-.154.24-.163.234-.009-.005.029-.094.11-.264.102-.198.226-.442.378-.743l1.501-2.835 5.617-10.37c2.398-4.382 5.241-9.58 8.398-15.346 1.585-2.887 3.251-5.914 4.975-9.054l2.654-4.799c.549-.876 1.661-1.371 2.648-1.284l2.832-.001 38.908.086 11.794.093 3.206.056.835.029c.187.01.283.02.283.029Z" clip-rule="evenodd"/><path fill="#4B376E" fill-rule="evenodd" d="M189.479 254.789a21.062 21.062 0 0 0-4.711-2.035 21.051 21.051 0 0 0-5.776-.826c-.511 0-.987.02-1.422.057-1.432.117-2.416.351-2.784.477-.768.091-1.551.222-2.352.399-.4.088-1.78.655-2.312.655a.502.502 0 0 1-.1-.009c-.429-.093-.839-.447-.834-.887.005-.542.578-.878 1.082-1.08 2.312-.931 5.1-1.398 7.845-1.398 4.969 0 9.795 1.529 11.385 4.597l-.021.05Zm-2.054-.439c-2.499-.9-4.886-1.569-7.322-1.866 1.371.121 2.911.375 4.501.835 1.008.294 1.953.649 2.821 1.031Z" clip-rule="evenodd"/><path fill="#5D4387" fill-rule="evenodd" d="M189.389 255.09a74.016 74.016 0 0 0-1.964-.741 23.412 23.412 0 0 0-2.821-1.031 23.89 23.89 0 0 0-4.501-.834 22.133 22.133 0 0 0-5.317-.022c.368-.126 1.352-.36 2.784-.477.435-.036.911-.057 1.422-.057 1.661 0 3.68.219 5.776.826a21.062 21.062 0 0 1 4.711 2.035c-.074.189-.106.293-.09.301Zm.064-.065c.027-.039.064-.094.106-.165l.019.037-.125.128Z" clip-rule="evenodd"/><path fill="#051317" fill-rule="evenodd" d="M189.388 255.09c-.016-.008.016-.111.09-.301l.021-.05.06.121a2.625 2.625 0 0 1-.107.165l-.064.065Z" clip-rule="evenodd"/><path fill="#fff" fill-rule="evenodd" d="m276.462 141.613 15.95 1.757a37.155 37.155 0 0 1 15.773-12.806c18.937-8.15 40.895.595 49.045 19.533 8.15 18.937-.594 40.896-19.532 49.046-18.937 8.15-40.896-.595-49.047-19.534a37.162 37.162 0 0 1-1.849-24.074l-.012.018-10.328-13.94Z" clip-rule="evenodd"/><path fill="#4B376E" d="M321.184 169.279v-1.838c0-1.147.211-2.203.632-3.167.421-.991 1.145-2.034 2.171-3.129.737-.782 1.25-1.447 1.539-1.994a3.86 3.86 0 0 0 .435-1.76c0-.73-.277-1.303-.829-1.721-.527-.417-1.29-.625-2.29-.625-2.447 0-4.75.873-6.908 2.62L314 153.207c1.158-.991 2.566-1.773 4.224-2.347a15.369 15.369 0 0 1 5.052-.86c1.737 0 3.263.287 4.579.86 1.316.548 2.329 1.33 3.04 2.347.737.99 1.105 2.151 1.105 3.48a6.846 6.846 0 0 1-.829 3.324c-.526 1.017-1.474 2.086-2.842 3.207-1.237 1.017-2.092 1.903-2.566 2.659-.447.756-.724 1.486-.829 2.19l-.197 1.212h-3.553ZM319.763 178v-6.257h6.395V178h-6.395Z"/></svg>