<svg xmlns="http://www.w3.org/2000/svg" width="441" height="428" fill="none"><g stroke-linecap="round" stroke-linejoin="round" stroke-width=".79" filter="url(#a)" opacity="1"><path stroke="url(#b)" d="m66.7 134.412 1.51 11.422c.537 4.045 3.161 7.496 6.888 9.047l10.522 4.384a11.165 11.165 0 0 0 11.18-1.517l9.009-7.034c3.19-2.493 4.828-6.52 4.291-10.564l-1.509-11.422c-.538-4.045-3.161-7.496-6.888-9.047l-10.522-4.384a11.165 11.165 0 0 0-11.18 1.517l-9.009 7.034c-3.19 2.493-4.829 6.52-4.291 10.564Z"/><path stroke="url(#c)" d="m66.208 133.141.947 11.841c.335 4.194 2.858 7.889 6.612 9.691l10.597 5.09a11.525 11.525 0 0 0 11.593-.947l9.654-6.749c3.419-2.392 5.319-6.448 4.985-10.643l-.948-11.841c-.335-4.195-2.857-7.889-6.611-9.691l-10.597-5.09a11.525 11.525 0 0 0-11.594.947l-9.653 6.749c-3.42 2.392-5.32 6.448-4.985 10.643Z"/><path stroke="url(#d)" d="m65.777 131.806.342 12.243c.12 4.336 2.52 8.278 6.289 10.341l10.64 5.817a11.86 11.86 0 0 0 11.985-.344l10.295-6.422c3.649-2.273 5.821-6.346 5.696-10.685l-.342-12.243c-.12-4.336-2.52-8.278-6.289-10.342l-10.64-5.816a11.86 11.86 0 0 0-11.985.344l-10.295 6.422c-3.648 2.273-5.82 6.346-5.696 10.685Z"/><path stroke="url(#e)" d="m65.4 130.407-.296 12.622c-.107 4.469 2.153 8.659 5.922 10.985l10.646 6.574a12.228 12.228 0 0 0 12.355.3l10.942-6.049c3.876-2.143 6.329-6.221 6.437-10.69l.296-12.622c.107-4.469-2.153-8.659-5.922-10.985l-10.645-6.574a12.23 12.23 0 0 0-12.356-.3l-10.942 6.049c-3.876 2.143-6.33 6.221-6.436 10.69Z"/><path stroke="url(#f)" d="m65.085 128.949-.98 12.978c-.35 4.598 1.753 9.034 5.514 11.637l10.607 7.35a12.609 12.609 0 0 0 12.705.985l11.588-5.628c4.104-1.994 6.849-6.057 7.196-10.65l.979-12.978c.35-4.598-1.752-9.034-5.513-11.637l-10.608-7.35a12.609 12.609 0 0 0-12.705-.985l-11.587 5.628c-4.104 1.994-6.849 6.057-7.196 10.65Z"/><path stroke="url(#g)" d="m64.843 127.431-1.7 13.307c-.602 4.714 1.324 9.398 5.056 12.281l10.527 8.145a12.993 12.993 0 0 0 13.03 1.708l12.226-5.162c4.334-1.831 7.371-5.86 7.974-10.574l1.7-13.307c.602-4.714-1.324-9.398-5.056-12.281l-10.527-8.146a12.993 12.993 0 0 0-13.03-1.707l-12.226 5.162c-4.334 1.83-7.372 5.86-7.974 10.574Z"/><path stroke="url(#h)" d="m64.671 125.851-2.46 13.605c-.87 4.818.864 9.745 4.548 12.92l10.407 8.963a13.402 13.402 0 0 0 13.32 2.47l12.866-4.648c4.557-1.648 7.901-5.629 8.774-10.451l2.46-13.605c.871-4.818-.864-9.745-4.547-12.92l-10.407-8.963a13.402 13.402 0 0 0-13.321-2.47L73.445 115.4c-4.557 1.648-7.9 5.629-8.774 10.451Z"/><path stroke="url(#i)" d="m64.582 124.217-3.257 13.876c-1.152 4.915.368 10.082 3.996 13.55l10.236 9.795a13.846 13.846 0 0 0 13.585 3.274l13.492-4.081c4.781-1.447 8.437-5.361 9.589-10.276l3.257-13.876c1.152-4.914-.368-10.082-3.997-13.549l-10.235-9.796a13.845 13.845 0 0 0-13.586-3.273l-13.492 4.08c-4.78 1.447-8.436 5.362-9.588 10.276Z"/><path stroke="url(#j)" d="m64.573 122.528-4.094 14.108c-1.45 4.999-.156 10.398 3.393 14.167l10.017 10.645c3.549 3.768 8.812 5.337 13.812 4.107l14.11-3.464c4.997-1.227 8.968-5.061 10.419-10.06l4.093-14.108c1.451-5 .156-10.398-3.393-14.167l-10.017-10.645c-3.549-3.768-8.812-5.337-13.811-4.107l-14.11 3.464c-4.998 1.226-8.969 5.061-10.42 10.06Z"/><path stroke="url(#k)" d="m64.655 120.791-4.964 14.299a15.176 15.176 0 0 0 2.737 14.773l9.747 11.508c3.453 4.077 8.787 5.975 14 4.988l14.713-2.796c5.209-.991 9.504-4.721 11.264-9.785l4.964-14.299c1.759-5.065.716-10.696-2.737-14.773l-9.746-11.508c-3.454-4.077-8.788-5.975-14.001-4.988l-14.713 2.796c-5.209.991-9.504 4.721-11.264 9.785Z"/><path stroke="url(#l)" d="m64.836 119.009-5.874 14.451a15.655 15.655 0 0 0 2.029 15.356l9.419 12.374c3.335 4.382 8.73 6.635 14.147 5.896l15.293-2.077c5.418-.731 10.037-4.339 12.119-9.46l5.874-14.451a15.656 15.656 0 0 0-2.029-15.356l-9.419-12.374c-3.335-4.382-8.73-6.635-14.147-5.896l-15.294 2.077c-5.418.731-10.037 4.339-12.118 9.46Z"/><path stroke="url(#m)" d="m65.112 117.183-6.816 14.557a16.139 16.139 0 0 0 1.275 15.92l9.04 13.254c3.2 4.695 8.636 7.306 14.25 6.843l15.856-1.303c5.618-.46 10.562-3.92 12.976-9.078l6.816-14.557a16.138 16.138 0 0 0-1.275-15.92l-9.04-13.254c-3.2-4.695-8.636-7.306-14.25-6.843l-15.856 1.303c-5.618.46-10.562 3.92-12.976 9.078Z"/><path stroke="url(#n)" d="m65.497 115.316-7.795 14.613a16.655 16.655 0 0 0 .461 16.462l8.601 14.143c3.045 5.011 8.502 7.991 14.307 7.823l16.392-.472c5.805-.168 11.086-3.46 13.843-8.635l7.795-14.612a16.653 16.653 0 0 0-.461-16.462l-8.601-14.144c-3.045-5.011-8.502-7.991-14.307-7.823l-16.392.472c-5.805.168-11.085 3.46-13.843 8.635Z"/><path stroke="url(#o)" d="m65.99 113.416-8.802 14.619a17.166 17.166 0 0 0-.402 16.97l8.1 15.026c2.866 5.325 8.326 8.692 14.311 8.837l16.902.407c5.985.145 11.596-2.953 14.714-8.134l8.802-14.618a17.166 17.166 0 0 0 .402-16.97l-8.1-15.027c-2.867-5.324-8.326-8.692-14.311-8.836l-16.902-.408c-5.985-.144-11.596 2.954-14.714 8.134Z"/><path stroke="url(#p)" d="m66.6 111.488-9.838 14.568a17.683 17.683 0 0 0-1.318 17.448l7.541 15.913c2.671 5.638 8.107 9.406 14.265 9.882l17.38 1.345c6.158.476 12.098-2.409 15.582-7.567l9.839-14.568a17.684 17.684 0 0 0 1.318-17.449l-7.541-15.913c-2.671-5.638-8.107-9.405-14.265-9.881l-17.38-1.345c-6.157-.477-12.098 2.409-15.582 7.567Z"/><path stroke="url(#q)" d="m67.33 109.53-10.905 14.462c-3.863 5.119-4.736 11.944-2.283 17.893l6.913 16.795c2.446 5.95 7.848 10.123 14.157 10.954l17.817 2.334c6.313.826 12.582-1.817 16.445-6.943l10.904-14.462c3.863-5.119 4.736-11.944 2.284-17.893l-6.914-16.795c-2.445-5.95-7.848-10.123-14.157-10.954l-17.817-2.334c-6.313-.826-12.582 1.817-16.445 6.943Z"/><path stroke="url(#r)" d="m68.189 107.563-12 14.29c-4.25 5.065-5.51 12.036-3.308 18.298l6.222 17.672c2.206 6.258 7.538 10.855 13.994 12.048l18.22 3.374c6.454 1.197 13.052-1.185 17.299-6.246l12-14.29c4.251-5.065 5.511-12.036 3.308-18.298l-6.222-17.672c-2.206-6.258-7.538-10.855-13.994-12.048l-18.22-3.374c-6.453-1.197-13.052 1.185-17.3 6.246Z"/><path stroke="url(#s)" d="m69.173 105.581-13.115 14.058c-4.647 4.979-6.316 12.094-4.38 18.657l5.463 18.533c1.936 6.564 7.18 11.585 13.762 13.17l18.579 4.475c6.582 1.585 13.497-.509 18.143-5.487l13.115-14.058c4.646-4.979 6.316-12.094 4.381-18.657l-5.464-18.533c-1.936-6.564-7.18-11.585-13.763-13.17l-18.578-4.475c-6.582-1.585-13.497.509-18.143 5.487Z"/><path stroke="url(#t)" d="m70.298 103.597-14.25 13.756c-5.048 4.872-7.147 12.105-5.504 18.964l4.637 19.378c1.643 6.867 6.777 12.32 13.466 14.309l18.887 5.622c6.693 1.991 13.922.215 18.972-4.66l14.25-13.756c5.047-4.872 7.146-12.105 5.504-18.964l-4.637-19.379c-1.644-6.866-6.777-12.32-13.466-14.308L89.27 98.937c-6.694-1.991-13.923-.215-18.972 4.66Z"/><path stroke="url(#u)" d="M71.554 101.613 56.15 114.994c-5.456 4.74-8.002 12.073-6.675 19.226l3.745 20.203c1.324 7.158 6.322 13.051 13.101 15.468l19.145 6.819c6.782 2.413 14.32.983 19.778-3.762l15.404-13.381c5.455-4.74 8.001-12.073 6.674-19.226l-3.744-20.203c-1.324-7.157-6.322-13.051-13.102-15.468l-19.144-6.819c-6.782-2.413-14.32-.983-19.778 3.762Z"/><path stroke="url(#v)" d="m72.958 99.637-16.57 12.936c-5.87 4.581-8.883 11.988-7.898 19.428l2.78 21.003c.984 7.441 5.812 13.782 12.666 16.642l19.35 8.066c6.854 2.86 14.694 1.794 20.564-2.786l16.571-12.936c5.869-4.581 8.881-11.988 7.896-19.428l-2.779-21.003c-.984-7.441-5.812-13.781-12.666-16.642l-19.35-8.066a20.532 20.532 0 0 0-20.564 2.786Z"/><path stroke="url(#w)" d="m74.51 97.683-17.748 12.415c-6.288 4.4-9.782 11.859-9.164 19.57l1.74 21.777c.618 7.711 5.248 14.505 12.154 17.823l19.489 9.361a21.165 21.165 0 0 0 21.318-1.747l17.748-12.416c6.288-4.4 9.782-11.858 9.164-19.57l-1.739-21.776c-.618-7.711-5.248-14.505-12.155-17.823l-19.488-9.36a21.164 21.164 0 0 0-21.318 1.746Z"/><path stroke="url(#x)" d="m76.207 95.757-18.936 11.809c-6.706 4.183-10.703 11.672-10.479 19.648l.635 22.512c.224 7.976 4.632 15.224 11.564 19.013l19.567 10.7a21.81 21.81 0 0 0 22.043-.635l18.936-11.81c6.705-4.183 10.703-11.672 10.479-19.648l-.635-22.512c-.225-7.976-4.632-15.224-11.564-19.013l-19.567-10.7a21.808 21.808 0 0 0-22.043.636Z"/><path stroke="url(#y)" d="M78.064 93.862 57.94 104.985c-7.128 3.938-11.638 11.433-11.836 19.654l-.55 23.212c-.193 8.224 3.958 15.922 10.893 20.208l19.575 12.089a22.489 22.489 0 0 0 22.724.551l20.125-11.123c7.129-3.937 11.639-11.433 11.837-19.654l.549-23.211c.194-8.224-3.957-15.922-10.892-20.208l-19.576-12.09a22.49 22.49 0 0 0-22.724-.55Z"/><path stroke="url(#z)" d="M80.065 92.019 58.754 102.37c-7.55 3.67-12.593 11.132-13.23 19.587l-1.8 23.866c-.637 8.455 3.226 16.613 10.139 21.398l19.507 13.511a23.168 23.168 0 0 0 23.365 1.808l21.312-10.351c7.549-3.67 12.593-11.133 13.23-19.587l1.8-23.866c.637-8.455-3.227-16.613-10.139-21.398L103.43 93.827a23.17 23.17 0 0 0-23.365-1.808Z"/><path stroke="url(#A)" d="m82.236 90.226-22.49 9.495c-7.967 3.36-13.559 10.774-14.664 19.443l-3.128 24.474c-1.105 8.668 2.434 17.278 9.295 22.586l19.365 14.975a23.912 23.912 0 0 0 23.962 3.139l22.49-9.495c7.967-3.36 13.559-10.774 14.664-19.443l3.128-24.474c1.105-8.668-2.434-17.278-9.296-22.586l-19.364-14.975a23.912 23.912 0 0 0-23.962-3.139Z"/><path stroke="url(#B)" d="M84.56 88.502 60.9 97.047c-8.382 3.029-14.53 10.352-16.133 19.215l-4.521 25.025c-1.603 8.862 1.585 17.919 8.365 23.759l19.14 16.481c6.78 5.84 16.119 7.569 24.5 4.54l23.661-8.545c8.381-3.029 14.53-10.352 16.132-19.215l4.522-25.025c1.603-8.862-1.586-17.919-8.366-23.759l-19.139-16.48c-6.78-5.84-16.12-7.57-24.501-4.54Z"/><path stroke="url(#C)" d="m87.045 86.852-24.813 7.503c-8.789 2.66-15.51 9.863-17.635 18.902l-5.989 25.514c-2.122 9.035.68 18.539 7.35 24.916l18.825 18.011c6.668 6.382 16.191 8.672 24.98 6.012l24.813-7.503c8.79-2.66 15.511-9.863 17.636-18.902l5.988-25.514c2.123-9.035-.678-18.539-7.35-24.916l-18.824-18.011c-6.668-6.382-16.192-8.672-24.981-6.012Z"/><path stroke="url(#D)" d="m89.692 85.287-25.946 6.37c-9.193 2.257-16.497 9.308-19.16 18.494l-7.526 25.944c-2.666 9.191-.288 19.122 6.24 26.052l18.422 19.573c6.526 6.934 16.207 9.815 25.4 7.558l25.946-6.371c9.193-2.257 16.496-9.307 19.16-18.494l7.525-25.944c2.667-9.19.289-19.122-6.24-26.051l-18.421-19.574c-6.526-6.933-16.207-9.814-25.4-7.557Z"/><path stroke="url(#E)" d="m92.499 83.825-27.052 5.14c-9.581 1.822-17.478 8.683-20.71 17.997l-9.13 26.295c-3.233 9.314-1.315 19.667 5.03 27.163l17.922 21.156c6.348 7.492 16.16 10.988 25.744 9.169l27.052-5.14c9.581-1.822 17.478-8.683 20.71-17.997l9.13-26.295c3.233-9.314 1.316-19.667-5.03-27.163l-17.922-21.156c-6.348-7.492-16.159-10.987-25.744-9.169Z"/><path stroke="url(#F)" d="m95.468 82.466-28.125 3.816c-9.965 1.352-18.456 7.98-22.28 17.393l-10.801 26.572c-3.824 9.413-2.402 20.175 3.735 28.24l17.325 22.757c6.133 8.062 16.053 12.195 26.018 10.843l28.125-3.816c9.964-1.352 18.456-7.98 22.28-17.393l10.801-26.572c3.824-9.413 2.402-20.175-3.736-28.24l-17.324-22.757c-6.133-8.062-16.054-12.195-26.018-10.843Z"/><path stroke="url(#G)" d="M98.598 81.238 69.442 83.63c-10.33.847-19.426 7.21-23.87 16.691L33.04 127.09c-4.44 9.484-3.548 20.644 2.338 29.279L52 180.748c5.886 8.634 15.878 13.434 26.207 12.588l29.157-2.392c10.33-.846 19.425-7.21 23.869-16.691l12.534-26.769c4.439-9.484 3.547-20.645-2.339-29.279l-16.622-24.379c-5.887-8.635-15.878-13.434-26.208-12.588Z"/><path stroke="url(#H)" d="m101.884 80.14-30.145.866c-10.68.308-20.385 6.36-25.458 15.88l-14.329 26.869a30.606 30.606 0 0 0 .85 30.267l15.816 26.002c5.6 9.212 15.63 14.699 26.31 14.391l30.146-.867c10.68-.309 20.385-6.361 25.457-15.879l14.329-26.87a30.604 30.604 0 0 0-.849-30.267L128.195 94.53c-5.6-9.212-15.631-14.7-26.311-14.39Z"/><path stroke="url(#I)" d="m105.326 79.188-31.081-.755c-11.012-.267-21.324 5.434-27.057 14.955l-16.185 26.88a31.553 31.553 0 0 0-.737 31.207l14.896 27.635c5.279 9.788 15.31 15.986 26.32 16.252l31.082.755c11.012.267 21.324-5.434 27.057-14.955l16.185-26.88c5.734-9.521 6.015-21.419.737-31.207L131.647 95.44c-5.279-9.788-15.309-15.985-26.321-16.252Z"/><path stroke="url(#J)" d="m108.919 78.402-31.96-2.473c-11.321-.875-22.241 4.43-28.653 13.918l-18.097 26.79c-6.408 9.491-7.333 21.722-2.423 32.091l13.863 29.265c4.913 10.365 14.911 17.294 26.232 18.169l31.96 2.474c11.321.875 22.241-4.431 28.653-13.918l18.097-26.791c6.408-9.49 7.333-21.721 2.423-32.091l-13.863-29.264c-4.913-10.366-14.911-17.295-26.232-18.17Z"/><path stroke="url(#K)" d="m112.664 77.787-32.771-4.294c-11.61-1.524-23.134 3.345-30.24 12.765L29.6 112.848c-7.105 9.42-8.708 21.962-4.203 32.906l12.713 30.887c4.5 10.942 14.426 18.617 26.036 20.141l32.77 4.293c11.606 1.522 23.135-3.344 30.24-12.764l20.058-26.594c7.105-9.421 8.707-21.962 4.203-32.906l-12.714-30.888c-4.5-10.941-14.426-18.616-26.035-20.14l-.003.004Z"/></g><g stroke-linecap="round" stroke-linejoin="round" stroke-width=".79" style="mix-blend-mode:plus-lighter"><path stroke="url(#L)" d="m266.194 256.974-25.713 10.791a27.313 27.313 0 0 1-27.356-3.646l-22.076-17.157c-7.818-6.08-11.85-15.917-10.56-25.812l3.631-27.938c1.29-9.895 7.688-18.35 16.796-22.166l25.712-10.791a27.313 27.313 0 0 1 27.356 3.646l22.076 17.157c7.818 6.08 11.851 15.917 10.56 25.813l-3.63 27.937c-1.291 9.895-7.688 18.35-16.796 22.166Z"/><path stroke="url(#M)" d="m269.455 256.466-25.897 12.511c-9.173 4.433-19.987 3.566-28.362-2.263l-23.644-16.451c-8.375-5.829-13.039-15.743-12.258-26l2.243-28.967c.798-10.262 6.937-19.315 16.11-23.748l25.897-12.511c9.173-4.433 19.988-3.566 28.363 2.263l23.643 16.451c8.375 5.829 13.04 15.743 12.258 26l-2.243 28.967c-.797 10.263-6.937 19.315-16.11 23.748Z"/><path stroke="url(#N)" d="m272.774 255.754-25.993 14.301a29.025 29.025 0 0 1-29.324-.774l-25.216-15.652c-8.937-5.539-14.266-15.49-13.998-26.097l.773-29.941c.267-10.607 6.109-20.262 15.325-25.323l25.994-14.301a29.018 29.018 0 0 1 29.323.774l25.216 15.651c8.937 5.539 14.266 15.491 13.998 26.097l-.772 29.941c-.268 10.607-6.11 20.262-15.326 25.324Z"/><path stroke="url(#O)" d="m276.16 254.839-26.002 16.135a29.899 29.899 0 0 1-30.218.803l-26.803-14.734c-9.489-5.216-15.514-15.166-15.799-26.1l-.801-30.869c-.285-10.934 5.222-21.197 14.425-26.914l26.002-16.136a29.899 29.899 0 0 1 30.218-.802l26.803 14.733c9.488 5.217 15.514 15.167 15.799 26.101l.801 30.869c.284 10.934-5.222 21.196-14.425 26.914Z"/><path stroke="url(#P)" d="m279.589 253.724-25.905 18.035a30.816 30.816 0 0 1-31.078 2.479l-28.379-13.7c-10.055-4.86-16.782-14.769-17.657-26.008l-2.473-31.734c-.875-11.239 4.24-22.109 13.409-28.493l25.906-18.035a30.813 30.813 0 0 1 31.078-2.479l28.378 13.699c10.056 4.861 16.783 14.77 17.658 26.009l2.473 31.734c.875 11.239-4.241 22.109-13.41 28.493Z"/><path stroke="url(#Q)" d="m283.06 252.381-25.709 19.983c-9.107 7.078-21.256 8.704-31.862 4.25l-29.941-12.55c-10.61-4.443-18.067-14.283-19.565-25.815l-4.232-32.532c-1.498-11.533 3.189-22.987 12.296-30.065l25.709-19.984c9.107-7.078 21.256-8.703 31.861-4.249l29.941 12.549c10.611 4.443 18.067 14.283 19.566 25.816l4.232 32.532c1.498 11.532-3.189 22.987-12.296 30.065Z"/><path stroke="url(#R)" d="m286.572 250.809-25.398 21.975c-8.995 7.782-21.417 10.117-32.571 6.124L197.1 267.621c-11.155-3.993-19.362-13.719-21.516-25.506l-6.089-33.268c-2.154-11.787 2.055-23.836 11.056-31.63l25.397-21.975c8.995-7.783 21.417-10.117 32.571-6.124l31.503 11.287c11.155 3.993 19.362 13.719 21.516 25.506l6.089 33.268c2.154 11.786-2.055 23.836-11.055 31.63Z"/><path stroke="url(#S)" d="m290.091 248.993-24.987 24.015c-8.85 8.504-21.511 11.591-33.209 8.077l-33.03-9.899c-11.704-3.503-20.656-13.071-23.521-25.083l-8.043-33.915c-2.848-12.018.839-24.656 9.689-33.16l24.986-24.015c8.851-8.504 21.512-11.591 33.21-8.077l33.03 9.899c11.704 3.503 20.656 13.071 23.52 25.083l8.044 33.914c2.848 12.018-.839 24.657-9.689 33.161Z"/><path stroke="url(#T)" d="m293.633 246.937-24.444 26.094c-8.661 9.246-21.528 13.103-33.759 10.128l-34.534-8.388c-12.231-2.975-21.971-12.323-25.539-24.545l-10.092-34.481c-3.574-12.21-.442-25.426 8.22-34.673l24.443-26.094c8.661-9.246 21.528-13.102 33.759-10.127l34.534 8.387c12.231 2.975 21.971 12.324 25.54 24.545l10.091 34.481c3.574 12.211.442 25.427-8.219 34.673Z"/><path stroke="url(#U)" d="m297.159 244.625-23.773 28.194c-8.418 9.988-21.463 14.669-34.219 12.277l-36.005-6.749c-12.757-2.391-23.273-11.487-27.612-23.867l-12.226-34.953c-4.327-12.374-1.81-26.156 6.607-36.144l23.774-28.193c8.418-9.989 21.463-14.669 34.219-12.278l36.005 6.749c12.756 2.391 23.273 11.487 27.612 23.867l12.225 34.953c4.328 12.374 1.811 26.156-6.607 36.144Z"/><path stroke="url(#V)" d="m300.661 242.054-22.972 30.33c-8.141 10.747-21.32 16.274-34.569 14.51l-37.413-4.983c-13.249-1.764-24.581-10.556-29.689-23.067l-14.441-35.312c-5.125-12.505-3.261-26.83 4.88-37.577l22.972-30.33c8.141-10.746 21.319-16.273 34.569-14.51l37.413 4.983c13.249 1.764 24.58 10.556 29.689 23.067l14.441 35.313c5.125 12.504 3.261 26.829-4.88 37.576Z"/><path stroke="url(#W)" d="m304.137 239.221-22.038 32.476c-7.81 11.505-21.072 17.916-34.82 16.819l-38.786-3.09c-13.737-1.091-25.865-9.531-31.793-22.127l-16.748-35.566c-5.938-12.601-4.782-27.441 3.027-38.946l22.039-32.476c7.809-11.504 21.072-17.916 34.819-16.819l38.787 3.09c13.736 1.092 25.865 9.531 31.792 22.127l16.748 35.566c5.938 12.602 4.782 27.441-3.027 38.946Z"/><path stroke="url(#X)" d="m307.564 236.101-20.952 34.642c-7.428 12.273-20.746 19.597-34.953 19.227l-40.104-1.058c-14.206-.37-27.132-8.4-33.91-21.043l-19.142-35.695c-6.779-12.643-6.385-27.997 1.037-40.259l20.951-34.643c7.428-12.273 20.747-19.596 34.953-19.226l40.105 1.058c14.206.369 27.132 8.4 33.91 21.043l19.142 35.695c6.779 12.643 6.385 27.997-1.037 40.259Z"/><path stroke="url(#Y)" d="m310.922 232.713-19.726 36.808c-6.992 13.041-20.312 21.304-34.955 21.7l-41.333 1.1c-14.643.397-28.381-7.164-36.032-19.808l-21.606-35.708c-7.651-12.644-8.069-28.468-1.078-41.508l19.727-36.809c6.992-13.04 20.312-21.303 34.955-21.7l41.333-1.1c14.643-.396 28.381 7.164 36.032 19.809l21.606 35.708c7.651 12.644 8.069 28.467 1.077 41.508Z"/><path stroke="url(#Z)" d="m314.206 229.038-18.348 38.966c-6.501 13.808-19.773 23.048-34.829 24.249l-42.5 3.386c-15.057 1.201-29.602-5.817-38.158-18.424l-24.151-35.58c-8.556-12.607-9.824-28.877-3.329-42.674l18.349-38.966c6.501-13.808 19.772-23.049 34.829-24.25l42.5-3.385c15.057-1.202 29.602 5.817 38.157 18.424l24.152 35.58c8.556 12.607 9.824 28.877 3.328 42.674Z"/><path stroke="url(#aa)" d="m317.396 225.068-16.816 41.117c-5.95 14.564-19.134 24.814-34.572 26.864l-43.572 5.815c-15.432 2.067-30.783-4.382-40.265-16.879l-26.755-35.302c-9.477-12.508-11.655-29.185-5.689-43.754l16.817-41.117c5.95-14.564 19.134-24.815 34.572-26.865l43.572-5.814c15.432-2.067 30.783 4.381 40.265 16.878l26.755 35.303c9.477 12.508 11.655 29.185 5.688 43.754Z"/><path stroke="url(#ab)" d="m320.452 220.811-15.116 43.255c-5.36 15.324-18.374 26.585-34.158 29.555l-44.555 8.371c-15.78 2.96-31.93-2.819-42.349-15.183l-29.424-34.891c-10.424-12.353-13.55-29.414-8.196-44.727l15.116-43.255c5.36-15.324 18.374-26.585 34.158-29.556l44.556-8.37c15.779-2.96 31.929 2.819 42.349 15.183l29.423 34.891c10.425 12.353 13.55 29.414 8.196 44.727Z"/><path stroke="url(#ac)" d="m323.384 216.273-13.26 45.359c-4.694 16.067-17.505 28.381-33.592 32.294l-45.422 11.053c-16.087 3.913-33.015-1.156-44.409-13.31l-32.161-34.306c-11.394-12.154-15.511-29.538-10.817-45.605l13.26-45.358c4.694-16.067 17.505-28.381 33.592-32.294l45.422-11.054c16.087-3.913 33.015 1.157 44.409 13.311l32.161 34.305c11.394 12.154 15.511 29.538 10.817 45.605Z"/><path stroke="url(#ad)" d="m326.148 211.431-11.236 47.421c-3.978 16.793-16.509 30.171-32.855 35.076l-46.171 13.862c-16.363 4.911-34.056.611-46.424-11.277l-34.936-33.558c-12.379-11.894-17.547-29.561-13.563-46.365l11.235-47.421c3.979-16.793 16.509-30.171 32.855-35.076l46.172-13.862c16.362-4.911 34.056-.611 46.424 11.277l34.935 33.558c12.379 11.893 17.547 29.561 13.564 46.365Z"/><path stroke="url(#ae)" d="m328.751 206.301-9.036 49.431c-3.202 17.507-15.393 31.965-31.964 37.907l-46.799 16.786c-16.577 5.953-35.024 2.483-48.398-9.072l-37.753-32.639c-13.368-11.565-19.636-29.471-16.429-46.989l9.036-49.431c3.203-17.507 15.393-31.966 31.964-37.907l46.799-16.787c16.577-5.952 35.025-2.482 48.399 9.072l37.752 32.639c13.369 11.566 19.637 29.472 16.429 46.99Z"/><path stroke="url(#af)" d="m331.147 200.862-6.673 51.384c-2.361 18.199-14.133 33.747-30.885 40.774l-47.283 19.837c-16.752 7.027-35.926 4.471-50.317-6.7l-40.61-31.547c-14.391-11.171-21.792-29.276-19.431-47.474l6.672-51.384c2.361-18.198 14.134-33.747 30.886-40.774l47.283-19.837c16.752-7.027 35.926-4.471 50.316 6.7l40.611 31.547c14.391 11.171 21.792 29.276 19.431 47.474Z"/><path stroke="url(#ag)" d="m333.327 195.137-4.139 53.269c-1.47 18.872-12.76 35.516-29.626 43.661l-47.623 23.014c-16.866 8.145-36.743 6.57-52.155-4.152L156.3 280.675c-15.401-10.716-23.994-28.952-22.529-47.813l4.139-53.269c1.471-18.872 12.76-35.516 29.626-43.661l47.623-23.015c16.867-8.145 36.743-6.569 52.155 4.152l43.484 30.255c15.402 10.716 23.994 28.952 22.529 47.813Z"/><path stroke="url(#ah)" d="m335.267 189.142-1.415 55.068c-.503 19.501-11.238 37.261-28.174 46.574l-47.803 26.284a53.336 53.336 0 0 1-53.915-1.426l-46.377-28.778c-16.433-10.188-26.24-28.484-25.742-48.002l1.415-55.067c.503-19.501 11.238-37.262 28.174-46.575l47.803-26.284a53.338 53.338 0 0 1 53.916 1.427l46.377 28.778c16.432 10.188 26.239 28.483 25.741 48.001Z"/><path stroke="url(#ai)" d="m336.946 182.838 1.479 56.771c.529 20.107-9.59 38.972-26.519 49.491l-47.811 29.68a55.017 55.017 0 0 1-55.587 1.481l-49.289-27.091c-17.453-9.599-28.538-27.903-29.056-48.004l-1.479-56.771c-.529-20.107 9.59-38.972 26.519-49.491l47.811-29.68a55.016 55.016 0 0 1 55.587-1.481l49.289 27.091c17.453 9.599 28.538 27.903 29.056 48.004Z"/><path stroke="url(#aj)" d="m338.335 176.282 4.547 58.366c1.605 20.679-7.789 40.648-24.667 52.394l-47.643 33.163c-16.878 11.747-38.662 13.487-57.146 4.555l-52.178-25.198c-18.488-8.921-30.862-27.156-32.467-47.835l-4.547-58.366c-1.605-20.678 7.789-40.647 24.667-52.394l47.643-33.162c16.878-11.747 38.662-13.487 57.145-4.555l52.179 25.198c18.488 8.921 30.862 27.155 32.467 47.834Z"/><path stroke="url(#ak)" d="m339.417 169.435 7.783 59.837c2.763 21.194-5.857 42.278-22.606 55.29l-47.281 36.754c-16.75 13.013-39.081 16.004-58.594 7.822l-55.059-23.094c-19.501-8.177-33.224-26.275-35.981-47.48l-7.784-59.837c-2.763-21.195 5.857-42.278 22.606-55.29l47.282-36.754c16.749-13.013 39.08-16.004 58.593-7.822l55.059 23.094c19.501 8.177 33.224 26.275 35.982 47.48Z"/><path stroke="url(#al)" d="m340.166 162.34 11.205 61.179c3.965 21.676-3.782 43.839-20.326 58.155l-46.722 40.416c-16.543 14.316-39.377 18.608-59.901 11.254l-57.927-20.763c-20.524-7.354-35.606-25.237-39.57-46.913l-11.205-61.179c-3.965-21.676 3.782-43.839 20.326-58.155l46.721-40.416c16.544-14.316 39.377-18.608 59.902-11.253l57.927 20.762c20.524 7.354 35.605 25.237 39.57 46.913Z"/><path stroke="url(#am)" d="m340.559 154.99 14.796 62.368c5.237 22.096-1.555 45.338-17.827 60.991l-45.941 44.159c-16.267 15.641-39.558 21.31-61.072 14.85l-60.737-18.209c-21.519-6.449-37.997-24.039-43.233-46.135l-14.796-62.368c-5.236-22.096 1.555-45.338 17.827-60.99l45.941-44.159c16.267-15.642 39.558-21.31 61.072-14.85l60.737 18.208c21.519 6.449 37.997 24.039 43.233 46.135Z"/><path stroke="url(#an)" d="m340.58 147.398 18.555 63.406c6.574 22.465.814 46.769-15.103 63.757l-44.952 47.977c-15.923 17-39.589 24.101-62.08 18.624l-63.507-15.428c-22.497-5.466-40.403-22.668-46.976-45.133l-18.555-63.406c-6.574-22.465-.814-46.769 15.103-63.757l44.952-47.977c15.923-17 39.589-24.101 62.08-18.624l63.507 15.428c22.497 5.466 40.402 22.668 46.976 45.133Z"/><path stroke="url(#ao)" d="m340.184 139.589 22.483 64.264c7.959 22.761 3.325 48.103-12.161 66.464l-43.716 51.849c-15.486 18.362-39.465 26.967-62.916 22.579l-66.197-12.415c-23.446-4.4-42.796-21.125-50.767-43.892l-22.482-64.264c-7.96-22.761-3.325-48.103 12.161-66.465l43.715-51.849c15.487-18.362 39.466-26.967 62.917-22.578l66.197 12.415c23.446 4.399 42.796 21.125 50.766 43.892Z"/><path stroke="url(#ap)" d="m339.377 131.562 26.567 64.937c9.411 23.006 5.994 49.336-8.973 69.087l-42.241 55.768c-14.967 19.751-39.193 29.92-63.576 26.675l-68.809-9.169c-24.372-3.239-45.186-19.415-54.598-42.422l-26.566-64.937c-9.411-23.007-5.994-49.336 8.973-69.087l42.241-55.768c14.967-19.751 39.193-29.92 63.576-26.676l68.808 9.17c24.373 3.238 45.187 19.415 54.598 42.422Z"/><path stroke="url(#aq)" d="m338.1 123.344 30.808 65.397c10.916 23.169 8.793 50.467-5.555 71.629l-40.526 59.723c-14.359 21.156-38.766 32.95-64.031 30.943l-71.334-5.674c-25.265-2.007-47.56-17.517-58.476-40.685l-30.808-65.398c-10.917-23.168-8.794-50.467 5.554-71.629l40.527-59.723c14.359-21.156 38.766-32.95 64.03-30.943l71.335 5.674c25.265 2.007 47.559 17.517 58.476 40.686Z"/><path stroke="url(#ar)" d="m336.36 114.954 35.207 65.644c12.47 23.258 11.745 51.481-1.908 74.035l-38.531 63.692c-13.647 22.571-38.146 36.034-64.264 35.348l-73.738-1.953c-26.118-.686-49.897-15.436-62.368-38.693l-35.206-65.645c-12.47-23.257-11.746-51.48 1.907-74.035l38.532-63.692c13.647-22.57 38.146-36.033 64.264-35.347l73.738 1.953c26.118.686 49.897 15.435 62.367 38.693Z"/><path stroke="url(#as)" d="m334.118 106.414 39.745 65.657c14.079 23.262 14.834 52.353 1.986 76.327l-36.273 67.68c-12.848 23.974-37.356 39.188-64.282 39.899l-76.017 2.024c-26.927.712-52.19-13.166-66.268-36.428l-39.745-65.657c-14.078-23.262-14.833-52.353-1.985-76.328l36.272-67.68c12.848-23.974 37.356-39.187 64.282-39.899l76.018-2.023c26.926-.712 52.189 13.166 66.267 36.428Z"/><path stroke="url(#at)" d="m331.349 97.752 44.413 65.429c15.729 23.178 18.057 53.085 6.112 78.473l-33.739 71.665c-11.955 25.382-36.367 42.383-64.057 44.598l-78.152 6.237c-27.684 2.204-54.435-10.708-70.165-33.886L91.349 264.84c-15.73-23.178-18.057-53.086-6.113-78.473l33.739-71.665c11.955-25.382 36.368-42.384 64.058-44.599l78.151-6.236c27.685-2.204 54.436 10.707 70.165 33.885Z"/><path stroke="url(#au)" d="m328.037 88.974 49.209 64.932c17.439 22.999 21.421 53.666 10.469 80.455l-30.916 75.614c-10.953 26.788-35.181 45.621-63.573 49.411l-80.13 10.693c-28.382 3.795-56.603-8.044-74.043-31.043l-49.209-64.932c-17.428-22.993-21.421-53.667-10.469-80.455l30.921-75.625c10.953-26.788 35.181-45.622 63.574-49.412L254 57.92c28.381-3.796 56.602 8.044 74.042 31.042l-.005.012Z"/></g><defs><linearGradient id="b" x1="106.966" x2="69.063" y1="125.27" y2="149.473" gradientUnits="userSpaceOnUse"><stop stop-color="#684A98"/><stop offset="1" stop-color="#0087CD"/></linearGradient><linearGradient id="c" x1="111.907" x2="68.097" y1="157.902" y2="149.123" gradientUnits="userSpaceOnUse"><stop stop-color="#684A98"/><stop offset="1" stop-color="#0087CD"/></linearGradient><linearGradient id="d" x1="63.976" x2="66.991" y1="127.19" y2="148.173" gradientUnits="userSpaceOnUse"><stop stop-color="#684A98"/><stop offset="1" stop-color="#0087CD"/></linearGradient><linearGradient id="e" x1="111.476" x2="65.501" y1="126.844" y2="146.952" gradientUnits="userSpaceOnUse"><stop stop-color="#684A98"/><stop offset="1" stop-color="#0087CD"/></linearGradient><linearGradient id="f" x1="112.481" x2="64.312" y1="127.942" y2="146.096" gradientUnits="userSpaceOnUse"><stop stop-color="#684A98"/><stop offset="1" stop-color="#0087CD"/></linearGradient><linearGradient id="g" x1="113.408" x2="63.125" y1="129.135" y2="145.162" gradientUnits="userSpaceOnUse"><stop stop-color="#684A98"/><stop offset="1" stop-color="#0087CD"/></linearGradient><linearGradient id="h" x1="114.252" x2="61.949" y1="130.421" y2="144.153" gradientUnits="userSpaceOnUse"><stop stop-color="#684A98"/><stop offset="1" stop-color="#0087CD"/></linearGradient><linearGradient id="i" x1="116.423" x2="60.913" y1="131.191" y2="142.731" gradientUnits="userSpaceOnUse"><stop stop-color="#684A98"/><stop offset="1" stop-color="#0087CD"/></linearGradient><linearGradient id="j" x1="117.095" x2="59.773" y1="132.715" y2="141.568" gradientUnits="userSpaceOnUse"><stop stop-color="#684A98"/><stop offset="1" stop-color="#0087CD"/></linearGradient><linearGradient id="k" x1="117.652" x2="58.647" y1="134.308" y2="140.318" gradientUnits="userSpaceOnUse"><stop stop-color="#684A98"/><stop offset="1" stop-color="#0087CD"/></linearGradient><linearGradient id="l" x1="119.59" x2="57.727" y1="135.596" y2="138.679" gradientUnits="userSpaceOnUse"><stop stop-color="#684A98"/><stop offset="1" stop-color="#0087CD"/></linearGradient><linearGradient id="m" x1="119.909" x2="56.654" y1="137.38" y2="137.26" gradientUnits="userSpaceOnUse"><stop stop-color="#684A98"/><stop offset="1" stop-color="#0087CD"/></linearGradient><linearGradient id="n" x1="121.621" x2="55.822" y1="138.997" y2="135.466" gradientUnits="userSpaceOnUse"><stop stop-color="#684A98"/><stop offset="1" stop-color="#0087CD"/></linearGradient><linearGradient id="o" x1="121.668" x2="54.822" y1="140.929" y2="133.862" gradientUnits="userSpaceOnUse"><stop stop-color="#684A98"/><stop offset="1" stop-color="#0087CD"/></linearGradient><linearGradient id="p" x1="123.108" x2="54.102" y1="142.839" y2="131.912" gradientUnits="userSpaceOnUse"><stop stop-color="#684A98"/><stop offset="1" stop-color="#0087CD"/></linearGradient><linearGradient id="q" x1="122.85" x2="53.194" y1="144.874" y2="130.115" gradientUnits="userSpaceOnUse"><stop stop-color="#684A98"/><stop offset="1" stop-color="#0087CD"/></linearGradient><linearGradient id="r" x1="123.969" x2="52.601" y1="147.02" y2="127.991" gradientUnits="userSpaceOnUse"><stop stop-color="#684A98"/><stop offset="1" stop-color="#0087CD"/></linearGradient><linearGradient id="s" x1="124.912" x2="52.09" y1="149.307" y2="125.789" gradientUnits="userSpaceOnUse"><stop stop-color="#684A98"/><stop offset="1" stop-color="#0087CD"/></linearGradient><linearGradient id="t" x1="125.664" x2="51.662" y1="151.717" y2="123.505" gradientUnits="userSpaceOnUse"><stop stop-color="#684A98"/><stop offset="1" stop-color="#0087CD"/></linearGradient><linearGradient id="u" x1="124.706" x2="51.025" y1="153.866" y2="121.304" gradientUnits="userSpaceOnUse"><stop stop-color="#684A98"/><stop offset="1" stop-color="#0087CD"/></linearGradient><linearGradient id="v" x1="125.06" x2="50.774" y1="156.387" y2="118.833" gradientUnits="userSpaceOnUse"><stop stop-color="#684A98"/><stop offset="1" stop-color="#0087CD"/></linearGradient><linearGradient id="w" x1="125.203" x2="50.635" y1="158.982" y2="116.281" gradientUnits="userSpaceOnUse"><stop stop-color="#684A98"/><stop offset="1" stop-color="#0087CD"/></linearGradient><linearGradient id="x" x1="125.119" x2="50.607" y1="161.624" y2="113.641" gradientUnits="userSpaceOnUse"><stop stop-color="#684A98"/><stop offset="1" stop-color="#0087CD"/></linearGradient><linearGradient id="y" x1="124.801" x2="50.699" y1="164.302" y2="110.923" gradientUnits="userSpaceOnUse"><stop stop-color="#684A98"/><stop offset="1" stop-color="#0087CD"/></linearGradient><linearGradient id="z" x1="125.615" x2="51.255" y1="167.737" y2="108.041" gradientUnits="userSpaceOnUse"><stop stop-color="#684A98"/><stop offset="1" stop-color="#0087CD"/></linearGradient><linearGradient id="A" x1="124.793" x2="51.628" y1="170.483" y2="105.179" gradientUnits="userSpaceOnUse"><stop stop-color="#684A98"/><stop offset="1" stop-color="#0087CD"/></linearGradient><linearGradient id="B" x1="123.729" x2="52.149" y1="173.195" y2="102.24" gradientUnits="userSpaceOnUse"><stop stop-color="#684A98"/><stop offset="1" stop-color="#0087CD"/></linearGradient><linearGradient id="C" x1="122.428" x2="52.833" y1="175.85" y2="99.231" gradientUnits="userSpaceOnUse"><stop stop-color="#684A98"/><stop offset="1" stop-color="#0087CD"/></linearGradient><linearGradient id="D" x1="122.072" x2="54.028" y1="179.447" y2="96.146" gradientUnits="userSpaceOnUse"><stop stop-color="#684A98"/><stop offset="1" stop-color="#0087CD"/></linearGradient><linearGradient id="E" x1="120.251" x2="55.063" y1="181.985" y2="93.027" gradientUnits="userSpaceOnUse"><stop stop-color="#684A98"/><stop offset="1" stop-color="#0087CD"/></linearGradient><linearGradient id="F" x1="119.27" x2="56.626" y1="185.536" y2="89.88" gradientUnits="userSpaceOnUse"><stop stop-color="#684A98"/><stop offset="1" stop-color="#0087CD"/></linearGradient><linearGradient id="G" x1="117.948" x2="58.384" y1="189.052" y2="86.724" gradientUnits="userSpaceOnUse"><stop stop-color="#684A98"/><stop offset="1" stop-color="#0087CD"/></linearGradient><linearGradient id="H" x1="115.353" x2="60.018" y1="191.262" y2="83.51" gradientUnits="userSpaceOnUse"><stop stop-color="#684A98"/><stop offset="1" stop-color="#0087CD"/></linearGradient><linearGradient id="I" x1="113.436" x2="62.202" y1="194.566" y2="80.343" gradientUnits="userSpaceOnUse"><stop stop-color="#684A98"/><stop offset="1" stop-color="#0087CD"/></linearGradient><linearGradient id="J" x1="111.197" x2="64.603" y1="197.748" y2="77.196" gradientUnits="userSpaceOnUse"><stop stop-color="#684A98"/><stop offset="1" stop-color="#0087CD"/></linearGradient><linearGradient id="K" x1="108.648" x2="67.231" y1="200.779" y2="74.08" gradientUnits="userSpaceOnUse"><stop stop-color="#684A98"/><stop offset="1" stop-color="#0087CD"/></linearGradient><linearGradient id="L" x1="235.846" x2="230.444" y1="159.489" y2="270.34" gradientUnits="userSpaceOnUse"><stop stop-color="#684A98"/><stop offset="1" stop-color="#0087CD"/></linearGradient><linearGradient id="M" x1="161.618" x2="235.175" y1="188.973" y2="270.764" gradientUnits="userSpaceOnUse"><stop stop-color="#684A98"/><stop offset="1" stop-color="#0087CD"/></linearGradient><linearGradient id="N" x1="284.629" x2="236.997" y1="253.944" y2="273.003" gradientUnits="userSpaceOnUse"><stop stop-color="#684A98"/><stop offset="1" stop-color="#0087CD"/></linearGradient><linearGradient id="O" x1="227.024" x2="240.686" y1="151.759" y2="275.029" gradientUnits="userSpaceOnUse"><stop stop-color="#684A98"/><stop offset="1" stop-color="#0087CD"/></linearGradient><linearGradient id="P" x1="223.492" x2="244.192" y1="150.952" y2="276.523" gradientUnits="userSpaceOnUse"><stop stop-color="#684A98"/><stop offset="1" stop-color="#0087CD"/></linearGradient><linearGradient id="Q" x1="219.865" x2="247.878" y1="150.437" y2="277.891" gradientUnits="userSpaceOnUse"><stop stop-color="#684A98"/><stop offset="1" stop-color="#0087CD"/></linearGradient><linearGradient id="R" x1="216.142" x2="251.719" y1="150.205" y2="279.104" gradientUnits="userSpaceOnUse"><stop stop-color="#684A98"/><stop offset="1" stop-color="#0087CD"/></linearGradient><linearGradient id="S" x1="211.864" x2="256.258" y1="146.499" y2="279.474" gradientUnits="userSpaceOnUse"><stop stop-color="#684A98"/><stop offset="1" stop-color="#0087CD"/></linearGradient><linearGradient id="T" x1="207.859" x2="260.39" y1="146.93" y2="280.35" gradientUnits="userSpaceOnUse"><stop stop-color="#684A98"/><stop offset="1" stop-color="#0087CD"/></linearGradient><linearGradient id="U" x1="203.847" x2="264.672" y1="147.692" y2="281.054" gradientUnits="userSpaceOnUse"><stop stop-color="#684A98"/><stop offset="1" stop-color="#0087CD"/></linearGradient><linearGradient id="V" x1="198.779" x2="269.529" y1="145.127" y2="280.8" gradientUnits="userSpaceOnUse"><stop stop-color="#684A98"/><stop offset="1" stop-color="#0087CD"/></linearGradient><linearGradient id="W" x1="194.659" x2="274.07" y1="146.633" y2="281.118" gradientUnits="userSpaceOnUse"><stop stop-color="#684A98"/><stop offset="1" stop-color="#0087CD"/></linearGradient><linearGradient id="X" x1="189.181" x2="279.105" y1="144.948" y2="280.408" gradientUnits="userSpaceOnUse"><stop stop-color="#684A98"/><stop offset="1" stop-color="#0087CD"/></linearGradient><linearGradient id="Y" x1="185.084" x2="283.881" y1="147.221" y2="280.295" gradientUnits="userSpaceOnUse"><stop stop-color="#684A98"/><stop offset="1" stop-color="#0087CD"/></linearGradient><linearGradient id="Z" x1="179.329" x2="289.049" y1="146.483" y2="279.11" gradientUnits="userSpaceOnUse"><stop stop-color="#684A98"/><stop offset="1" stop-color="#0087CD"/></linearGradient><linearGradient id="aa" x1="175.394" x2="294.037" y1="149.529" y2="278.527" gradientUnits="userSpaceOnUse"><stop stop-color="#684A98"/><stop offset="1" stop-color="#0087CD"/></linearGradient><linearGradient id="ab" x1="169.537" x2="299.325" y1="149.768" y2="276.834" gradientUnits="userSpaceOnUse"><stop stop-color="#684A98"/><stop offset="1" stop-color="#0087CD"/></linearGradient><linearGradient id="ac" x1="163.603" x2="304.631" y1="150.558" y2="274.871" gradientUnits="userSpaceOnUse"><stop stop-color="#684A98"/><stop offset="1" stop-color="#0087CD"/></linearGradient><linearGradient id="ad" x1="157.645" x2="309.954" y1="151.912" y2="272.639" gradientUnits="userSpaceOnUse"><stop stop-color="#684A98"/><stop offset="1" stop-color="#0087CD"/></linearGradient><linearGradient id="ae" x1="154.335" x2="315.27" y1="156.6" y2="271.023" gradientUnits="userSpaceOnUse"><stop stop-color="#684A98"/><stop offset="1" stop-color="#0087CD"/></linearGradient><linearGradient id="af" x1="148.628" x2="320.665" y1="158.933" y2="268.222" gradientUnits="userSpaceOnUse"><stop stop-color="#684A98"/><stop offset="1" stop-color="#0087CD"/></linearGradient><linearGradient id="ag" x1="143.036" x2="326.054" y1="161.815" y2="265.126" gradientUnits="userSpaceOnUse"><stop stop-color="#684A98"/><stop offset="1" stop-color="#0087CD"/></linearGradient><linearGradient id="ah" x1="137.619" x2="331.442" y1="165.243" y2="261.732" gradientUnits="userSpaceOnUse"><stop stop-color="#684A98"/><stop offset="1" stop-color="#0087CD"/></linearGradient><linearGradient id="ai" x1="132.418" x2="336.813" y1="169.213" y2="258.04" gradientUnits="userSpaceOnUse"><stop stop-color="#684A98"/><stop offset="1" stop-color="#0087CD"/></linearGradient><linearGradient id="aj" x1="124.239" x2="341.94" y1="171.681" y2="253.146" gradientUnits="userSpaceOnUse"><stop stop-color="#684A98"/><stop offset="1" stop-color="#0087CD"/></linearGradient><linearGradient id="ak" x1="119.514" x2="347.208" y1="176.819" y2="248.81" gradientUnits="userSpaceOnUse"><stop stop-color="#684A98"/><stop offset="1" stop-color="#0087CD"/></linearGradient><linearGradient id="al" x1="115.16" x2="352.439" y1="182.43" y2="244.137" gradientUnits="userSpaceOnUse"><stop stop-color="#684A98"/><stop offset="1" stop-color="#0087CD"/></linearGradient><linearGradient id="am" x1="111.209" x2="357.612" y1="188.476" y2="239.106" gradientUnits="userSpaceOnUse"><stop stop-color="#684A98"/><stop offset="1" stop-color="#0087CD"/></linearGradient><linearGradient id="an" x1="104.134" x2="362.332" y1="193.657" y2="232.92" gradientUnits="userSpaceOnUse"><stop stop-color="#684A98"/><stop offset="1" stop-color="#0087CD"/></linearGradient><linearGradient id="ao" x1="101.068" x2="367.324" y1="200.673" y2="227.168" gradientUnits="userSpaceOnUse"><stop stop-color="#684A98"/><stop offset="1" stop-color="#0087CD"/></linearGradient><linearGradient id="ap" x1="94.855" x2="371.758" y1="207.138" y2="220.294" gradientUnits="userSpaceOnUse"><stop stop-color="#684A98"/><stop offset="1" stop-color="#0087CD"/></linearGradient><linearGradient id="aq" x1="89.134" x2="376.009" y1="214.283" y2="213.07" gradientUnits="userSpaceOnUse"><stop stop-color="#684A98"/><stop offset="1" stop-color="#0087CD"/></linearGradient><linearGradient id="ar" x1="87.705" x2="380.582" y1="222.555" y2="206.156" gradientUnits="userSpaceOnUse"><stop stop-color="#684A98"/><stop offset="1" stop-color="#0087CD"/></linearGradient><linearGradient id="as" x1="83.156" x2="384.44" y1="230.719" y2="198.162" gradientUnits="userSpaceOnUse"><stop stop-color="#684A98"/><stop offset="1" stop-color="#0087CD"/></linearGradient><linearGradient id="at" x1="79.258" x2="388.059" y1="239.423" y2="189.788" gradientUnits="userSpaceOnUse"><stop stop-color="#684A98"/><stop offset="1" stop-color="#0087CD"/></linearGradient><linearGradient id="au" x1="76.058" x2="391.412" y1="248.606" y2="181.022" gradientUnits="userSpaceOnUse"><stop stop-color="#684A98"/><stop offset="1" stop-color="#0087CD"/></linearGradient><filter id="a" width="135.852" height="132.927" x="20.48" y="70.821" color-interpolation-filters="sRGB" filterUnits="userSpaceOnUse"><feFlood flood-opacity="0" result="BackgroundImageFix"/><feBlend in="SourceGraphic" in2="BackgroundImageFix" result="shape"/><feGaussianBlur result="effect1_foregroundBlur_3_14726" stdDeviation="1"/></filter></defs></svg>