<svg xmlns="http://www.w3.org/2000/svg" width="681" height="770" fill="none">
<path stroke="url(#a)" d="m121.435 1.753 99 174M557.437.243l-98 176M161.455.793l80 176M199.47.829l64 176M241.486.881l43.021 175.995M279.495.93l25 176M319.499-.025l9 177M399.494.075l-27 177M439.484.125l-46 177.001M478.469 1.173l-65 176M359.499-.975l-9 178M518.453-.789l-83 178M134.999 24.5l409-.998M148 48.5h383m-371 21h359m-347.998 18 337 1.021M180 104.5h320m-311 15 302 .021M196 132.5h288m-281.002 13 275-1M209 156.5h262m-256 9h251m-246 10h240M117.434 770.165 218.25 591.277m343.186 180.45-99.798-180.944M158.189 771.152l81.468-180.943m-42.756 180.907 65.174-180.944m-22.388 180.892 43.811-180.939m-5.104 180.89 25.459-180.944m15.279 181.927 9.166-181.972m72.297 181.87L373.1 589.924m68.219 181.921-46.844-181.972m86.544 180.896-66.193-180.944m-54.96 183.149-9.165-183m171.036 182.813-84.523-183M131.256 746.77l416.504 1.025m-403.265-25.699h390.028m-377.807-21.59h365.587M167.919 682l343.183-1.05m-334.019-16.428h325.871m-316.706-15.421 307.541-.022m-300.413-13.343h293.285M201.002 621.5l279 1m-272.368-12.438 265.367.438m-260.275-9.691 255.275.691m-250.184-9.972H462.22M76.5 0v773.001m30-773.002 1 773m26-748.998-2.001 723M148.5 49.003l-4 673m16-652-4 630m14-613-3.007 594m13.007-576-3 559m11-544-3 529m11-516-3 502m10-490.001-2 477m8-466.001-1 455m7-444.999-2 435m6-426.002v416M35.5 1l-1.012 769.001M602.5 772V-9m42 781V-9m-72 781.001-1-780.999m-24 756-3-724m-10 699.001-4-673m-8 651-4-630m-7 611-3-592m-6 575-3.002-560m-5.998 545-3-529m-4 516-3-503m-4 489.999-2-479.436m-5 467.436-2.005-454m-2.995 445-1.998-437m-4.002 427-2-417.115M588.42.271l-129 200M629.399.301l-169 224M680.369 8.338l-220 240M630.6 770.299l-169-226m128.98 225.972-129-200M680.331 84.375l-221 195m220.945-119.958-219.999 146M680.2 234.458l-220 96m219.907-21.97-219 48M680 384.5H461m218.893 74.988-218-48m217.905 122.969-219-97m218.923 172.958-218.001-147m217.947 221.958-219-196m218.96 269.96-218-244M90.421.729 219 200M49.398.698l170 224M3.372 12.666l216 241M46.601 769.699l172-228M87.579 770.731l131-205M-.668 84.626l220 195M.277 159.584l219 146M-.799 234.542l221 97M.109 308.512l219 49M.002 383.5l220 1m-221.11 75.012 219.999-49M-.202 533.543l219-97M-.276 607.583l219-145M-.332 682.627l219-195M1.628 755.665l217-241"/>
<defs><linearGradient id="a" x1="-1" x2="664.5" y1="382" y2="382" gradientUnits="userSpaceOnUse">
<stop stop-color="#AA7CE9"/><stop offset=".541" stop-color="#604683" stop-opacity=".1"/>
<stop offset="1" stop-color="#AA7CE9"/>
</linearGradient></defs></svg>