<svg xmlns="http://www.w3.org/2000/svg" width="175" height="59" fill="none"><path stroke="#B3B3B3" stroke-miterlimit="22.926" stroke-width=".96" d="M165.526 58a53.787 53.787 0 0 0 6.014-13.663c1.33-4.72 2.043-9.7 2.043-14.837a54.64 54.64 0 0 0-2.043-14.837A53.764 53.764 0 0 0 165.526 1l-10.218 6.542a41.159 41.159 0 0 1 4.594 10.489 42.19 42.19 0 0 1 1.571 11.469 42.2 42.2 0 0 1-1.571 11.47 41.184 41.184 0 0 1-4.594 10.488L165.526 58ZM9.058 58a53.734 53.734 0 0 1-6.015-13.663A54.65 54.65 0 0 1 1 29.5c0-5.138.713-10.118 2.043-14.837A53.71 53.71 0 0 1 9.058 1l10.217 6.542A41.184 41.184 0 0 0 14.68 18.03 42.21 42.21 0 0 0 13.11 29.5c0 3.994.549 7.842 1.57 11.47a41.195 41.195 0 0 0 4.595 10.488L9.058 58Z"/><path fill="#23DCDC" d="M128.226 45.81h.761v7.002c0 .297.052.49.156.584.104.09.231.136.38.136.134 0 .269-.015.403-.046.134-.03.249-.06.346-.09l.134.625a2.47 2.47 0 0 1-.52.148 3.008 3.008 0 0 1-.531.056c-.343 0-.617-.102-.822-.308-.205-.205-.307-.488-.307-.846V45.81Zm5.525 8.415c-.418 0-.805-.08-1.163-.244a2.843 2.843 0 0 1-.928-.667 3.12 3.12 0 0 1-.61-.98 3.244 3.244 0 0 1-.218-1.19c0-.55.125-1.054.375-1.513a2.918 2.918 0 0 1 1.034-1.101c.44-.275.94-.411 1.498-.411.574 0 1.076.138 1.505.417.429.278.766.646 1.012 1.103.246.455.369.954.369 1.496v.174c0 .057-.004.1-.012.131h-4.987c.037.423.154.798.352 1.126.197.328.454.587.771.781.317.191.662.288 1.034.288.381 0 .74-.099 1.08-.296.339-.197.576-.454.71-.773l.66.182c-.12.28-.302.535-.549.762a2.614 2.614 0 0 1-.866.529 3.01 3.01 0 0 1-1.069.187h.002Zm-2.147-3.343h4.305a2.429 2.429 0 0 0-.341-1.126 2.182 2.182 0 0 0-.771-.76 2.045 2.045 0 0 0-1.046-.275c-.38 0-.727.09-1.04.275-.313.184-.568.44-.766.765-.198.327-.312.7-.342 1.121h.001Zm5.726 1.535c0-.37.104-.688.313-.955.209-.268.498-.474.867-.622.369-.146.795-.22 1.28-.22.283 0 .578.023.883.068.306.046.578.114.817.205v-.498c0-.498-.145-.893-.436-1.187-.291-.294-.694-.441-1.208-.441-.313 0-.62.058-.923.176-.302.117-.617.29-.944.517l-.291-.546c.38-.265.752-.464 1.118-.597a3.25 3.25 0 0 1 1.118-.199c.716 0 1.282.207 1.7.622.417.415.627.987.627 1.717v2.724c0 .106.022.182.067.231.044.05.115.078.212.086v.614a6.432 6.432 0 0 0-.212.023.375.375 0 0 1-.134 0c-.187-.008-.328-.068-.425-.182a.611.611 0 0 1-.157-.364l-.011-.432c-.261.341-.6.605-1.017.79a3.11 3.11 0 0 1-1.276.28c-.372 0-.709-.082-1.012-.243a1.811 1.811 0 0 1-.704-.656 1.71 1.71 0 0 1-.252-.91Zm3.903.451a1.58 1.58 0 0 0 .19-.305.644.644 0 0 0 .067-.26v-.857a4.568 4.568 0 0 0-1.611-.303c-.544 0-.984.108-1.32.326-.335.218-.503.515-.503.89 0 .219.056.423.168.615.111.191.275.35.491.474.217.123.47.186.761.186a2.48 2.48 0 0 0 1.023-.214c.317-.142.561-.326.733-.552h.001Zm5.569-4a2.37 2.37 0 0 0-1.336.433 2.17 2.17 0 0 0-.811 1.126v3.684h-.76V48.21h.716v1.399a2.79 2.79 0 0 1 .799-1.012 1.961 1.961 0 0 1 1.057-.432c.075-.008.14-.012.196-.012.056 0 .102.004.14.011v.706h-.001Zm5.916 5.243h-.76v-3.288c0-.692-.101-1.2-.302-1.52-.202-.32-.519-.48-.951-.48-.299 0-.593.074-.884.22a2.494 2.494 0 0 0-.766.599c-.22.25-.379.538-.476.862v3.607h-.76V48.21h.693v1.346c.157-.286.362-.539.616-.753.253-.214.54-.383.861-.504.32-.12.652-.18.995-.18.321 0 .593.06.816.18.224.121.403.294.537.516.134.221.231.489.291.802.06.315.09.661.09 1.046v3.45Z"/><path fill="#fff" d="m141.213 46.206-.693-9.679-.124-4.25V25.9c0-1.747-.735-3.03-2.193-3.84-1.469-.81-3.642-1.263-6.539-1.347l-8.214-.21.61-7.586 7.004.095c5.814.084 10.138 1.252 12.973 3.504 2.824 2.24 4.242 5.523 4.242 9.847v12.079l4.448.673v6.786l-11.515.305h.001Zm-97.573-.315V27.437c-.101-5.041-2.814-7.031-6.385-7.031-4.211 0-6.998 3.034-6.998 9.101l-1.915-10.496h2.73c.717-5.158 3.585-6.564 8.552-6.564 8.192 0 12.581 4.205 12.581 12.416v21.028H43.64h.001Zm-21.785 0V13.07h7.503l.9 6.934V45.89h-8.403Zm37.95-3.26a17.75 17.75 0 0 1-4.336-6.517 18.802 18.802 0 0 1-1.253-6.83c0-2.437.418-4.729 1.254-6.897a17.74 17.74 0 0 1 3.594-5.768c1.56-1.688 3.462-2.996 5.705-3.946 2.082-.883 4.412-1.36 6.987-1.423l-3.149 8.268c-3.741 1.534-6.388 5.32-6.388 9.746 0 1.604.349 3.124.97 4.482l-3.384 8.886v-.001Zm25.038-26.778c.264.246.52.501.768.766a17.027 17.027 0 0 1 3.595 5.768c.813 2.168 1.22 4.46 1.22 6.897a19.26 19.26 0 0 1-1.22 6.83c-.814 2.169-2 4.092-3.562 5.768-1.56 1.688-3.462 2.996-5.705 3.946-2.1.89-4.452 1.369-7.054 1.425l3.138-8.238c3.748-1.531 6.4-5.32 6.4-9.751 0-1.609-.35-3.133-.975-4.495l3.396-8.916Zm15.333 29.713L87.968 13.07h9.692l7.82 22.882 7.877-22.882h8.949c-4.089 10.94-8.172 21.883-12.267 32.82h-9.742l-.121-.324Zm30.154.957c-3.414 0-6.073-.853-7.966-2.568-1.903-1.704-2.855-4.124-2.855-7.27 0-3.662 1.251-6.46 3.734-8.417 2.484-1.946 6.011-2.924 10.573-2.924 1.759 0 3.28.094 4.563.273 1.283.19 2.586.474 3.9.863l-1.335 6.502c-1.293-.306-2.462-.484-3.486-.537a64.014 64.014 0 0 0-3.248-.074c-4.242 0-6.363 1.231-6.363 3.694 0 1.115.382 1.957 1.148 2.545.776.59 1.893.884 3.372.884 1.78 0 3.259-.347 4.449-1.02 1.2-.684 2.089-1.547 2.689-2.589.59-1.052.89-2.125.89-3.24v-2.03L141.543 39h-2.576l1.066-.989c-.062 1.894-.486 3.472-1.272 4.734-.786 1.263-1.894 2.21-3.321 2.83-1.428.631-3.125.948-5.111.948h.001Z"/><path fill="#23DCDC" fill-rule="evenodd" d="M76.495 4.774 57.852 53.725h10.296L86.79 4.775H76.495Z" clip-rule="evenodd"/></svg>